mtllib egypt_ground_2.mtl
o Default
v 0 -0.000029646529583260417 0.000049997499445453286
v 2 0.00017035346536431462 2.0000500679016113
v 0 0.00017035346536431462 2.0000500679016113
v 2 -0.000029646529583260417 0.000049997499445453286
v 0 0.24988314509391785 1.9998500347137451
v 2 0.25008314847946167 -0.0001500075013609603
v 0 0.25008314847946167 -0.0001500075013609603
v 2 0.24988314509391785 1.9998500347137451
vt 0.05555555555555555 0.05555555555555555
vt 0.9444444444444444 0.9444444444444444
vt 0.05555555555555555 0.9444444444444444
vt 0.9444444444444444 0.05555555555555555
vt 0.05555555555555555 0.8333333333333333
vt 0.9444444444444444 0.8333333333333333
vn 0 -1 0.0001
vn 0 0.99999999 0.0001
vn -1 0 0
vn 0 -0.00079966 -0.99999968
vn 0 0.00080105 0.99999968
vn 1 0 0
g Scene
usemtl 1
f 1/1/1 2/2/1 3/3/1
f 1/1/1 4/4/1 2/2/1
f 5/1/2 6/2/2 7/3/2
f 5/1/2 8/4/2 6/2/2
f 1/5/3 5/2/3 7/3/3
f 1/5/3 3/6/3 5/2/3
f 4/5/4 7/2/4 6/3/4
f 4/5/4 1/6/4 7/2/4
f 3/5/5 8/2/5 5/3/5
f 3/5/5 2/6/5 8/2/5
f 2/5/6 6/2/6 8/3/6
f 2/5/6 4/6/6 6/2/6
