mtllib egypt_ground_4.mtl
o Default
v 0 0.000012164859072072431 0.000049997499445453286
v 2 0.00021216484310571104 2.0000500679016113
v 0 0.00021216484310571104 2.0000500679016113
v 2 0.000012164859072072431 0.000049997499445453286
v 4.05746648836041e-16 0.25 2
v -3.834255770529916e-17 0.25 0
v 2 0.25 0
v 2 0.24982644617557526 1.9998500347137451
vt 0.05555555555555555 0.05555555555555555
vt 0.9444444444444444 0.9444444444444444
vt 0.05555555555555555 0.9444444444444444
vt 0.9444444444444444 0.05555555555555555
vt 0.05555555555555555 0.8333333333333333
vt 0.9444444444444444 0.8333333333333333
vn 0 -1 0.0001
vn -1 0 0
vn 0 -0.0002 -0.99999998
vn 0 1 0
vn 0.00008678 0.99999999 0.00008678
vn 0.000075 0.00020044 0.99999998
vn 0 0.00080137 0.99999968
vn 1 0 0
g Scene
usemtl 1
f 1/1/1 2/2/1 3/3/1
f 1/1/1 4/4/1 2/2/1
f 1/5/2 5/2/2 6/3/2
f 1/5/2 3/6/2 5/2/2
f 4/5/3 6/2/3 7/3/3
f 4/5/3 1/6/3 6/2/3
f 5/1/4 7/2/4 6/3/4
f 5/1/5 8/4/5 7/2/5
f 3/5/6 8/2/6 5/3/6
f 3/5/7 2/6/7 8/2/7
f 2/5/8 7/2/8 8/3/8
f 2/5/8 4/6/8 7/2/8
