mtllib Ground01.mtl
o Default
v 0 0.000027739924917113967 0.000049997499445453286
v 2 0.0002277399180456996 2.0000500679016113
v 0 0.0002277399180456996 2.0000500679016113
v 2 0.000027739924917113967 0.000049997499445453286
v 2.219978063546955e-15 0.25 2
v 1.7758889595760109e-15 0.25 0
v 2 0.25 2
v 2 0.25 2.220446049250313e-16
vt 0.05555555555555555 0.05555555555555555
vt 0.9444444444444444 0.9444444444444444
vt 0.05555555555555555 0.9444444444444444
vt 0.9444444444444444 0.05555555555555555
vt 0.05555555555555555 0.8333333333333333
vt 0.9444444444444444 0.8333333333333333
vn 0 -1 0.0001
vn -1 0 0
vn 0 0.00020045 0.99999998
vn 1 0 0
vn 0 -0.00020001 -0.99999998
vn 0 1 0
g Scene
usemtl 1
f 1/1/1 2/2/1 3/3/1
f 1/1/1 4/4/1 2/2/1
f 1/5/2 5/2/2 6/3/2
f 1/5/2 3/6/2 5/2/2
f 3/5/3 7/2/3 5/3/3
f 3/5/3 2/6/3 7/2/3
f 2/5/4 8/2/4 7/3/4
f 2/5/4 4/6/4 8/2/4
f 4/5/5 6/2/5 8/3/5
f 4/5/5 1/6/5 6/2/5
f 5/1/6 8/2/6 6/3/6
f 5/1/6 7/4/6 8/2/6
