{"asset":{"version":"2.0","generator":"THREE.GLTFExporter"},"scenes":[{"name":"default","nodes":[0]}],"scene":0,"nodes":[{"mesh":0}],"bufferViews":[{"buffer":0,"byteOffset":0,"byteLength":25752,"target":34962,"byteStride":12},{"buffer":0,"byteOffset":25752,"byteLength":25752,"target":34962,"byteStride":12},{"buffer":0,"byteOffset":51504,"byteLength":17168,"target":34962,"byteStride":8},{"buffer":0,"byteOffset":68672,"byteLength":17168,"target":34962,"byteStride":8},{"buffer":0,"byteOffset":85840,"byteLength":6504,"target":34963}],"buffers":[{"byteLength":92344,"uri":"data:application/octet-stream;base64,"}],"accessors":[{"bufferView":0,"componentType":5126,"count":2146,"max":[16,11,1],"min":[-1.1102230246251565e-16,-5.551115123125783e-17,-9],"type":"VEC3"},{"bufferView":1,"componentType":5126,"count":2146,"max":[1,1,1],"min":[-1,-0.7071067690849304,-1],"type":"VEC3"},{"bufferView":2,"componentType":5126,"count":2146,"max":[0.9722222089767456,0.9166666865348816],"min":[0.02777777798473835,0.0833333358168602],"type":"VEC2"},{"bufferView":3,"componentType":5126,"count":2146,"max":[-1,0],"min":[-1,0],"type":"VEC2"},{"bufferView":4,"componentType":5123,"count":3252,"max":[2145],"min":[0],"type":"SCALAR"}],"materials":[{"pbrMetallicRoughness":{"metallicFactor":0,"roughnessFactor":1,"baseColorTexture":{"index":0}},"alphaMode":"MASK","alphaCutoff":0.01,"name":"texture_1"}],"textures":[{"sampler":0,"source":0,"name":"texture_1"}],"samplers":[{"magFilter":9728,"minFilter":9728,"wrapS":33071,"wrapT":33071}],"images":[{"mimeType":"image/png","uri":"data:image/png;base64,"}],"meshes":[{"primitives":[{"mode":4,"attributes":{"POSITION":0,"NORMAL":1,"TEXCOORD_0":2,"_UVANIMATION":3},"indices":4,"material":0}]}]}