# Created by Kenney (www.kenney.nl)

mtllib apple.mtl

v 3 1 1
v 2 1 1
v 2.965926 1.258819 1
v 2 2 1
v 2.866025 1.5 1
v 2.707107 1.707107 1
v 2.5 1.866025 1
v 2.258819 1.965926 1
v 2.707107 1.707107 -1
v 2.5 1.866025 -1
v 2.965926 1.258819 -1
v 3 1 -1
v 2.258819 1.965926 -1
v 2 2 -1
v 2 1 -1
v 2.866025 1.5 -1
v 2.258819 -2.965926 1
v 2.258819 -2.965926 -1
v 2 -3 1
v 2.5 -2.866025 1
v 2.5 -2.866025 -1
v 2.707107 -2.707107 1
v 2.707107 -2.707107 -1
v 2.866025 -2.5 1
v 2 -3 -1
v 2.965926 -2.258819 -1
v 2.866025 -2.5 -1
v 2.965926 -2.258819 1
v 2 -2 -1
v 2 -2 1
v 3 -2 -1
v 3 -2 1
v 1 2 1
v 1.965926 2.258819 1
v 1 3 1
v 1.866025 2.5 1
v 1.707107 2.707107 1
v 1.5 2.866025 1
v 1.258819 2.965926 1
v 1.707107 2.707107 -1
v 1.5 2.866025 -1
v 1.965926 2.258819 -1
v 1.258819 2.965926 -1
v 1 3 -1
v 1 2 -1
v 1.866025 2.5 -1
v 1.258819 -3.965926 1
v 1.258819 -3.965926 -1
v 1 -4 1
v 1.5 -3.866025 1
v 1.5 -3.866025 -1
v 1.707107 -3.707107 1
v 1.707107 -3.707107 -1
v 1.866025 -3.5 1
v 1 -4 -1
v 1.965926 -3.258819 -1
v 1.866025 -3.5 -1
v 1.965926 -3.258819 1
v 1 -3 -1
v 1 -3 1
v -1.707107 2.707107 -1
v -1.866025 2.5 -1
v -1 3 -1
v -1.5 2.866025 -1
v -1.258819 2.965926 -1
v -1.965926 2.258819 -1
v -2 2 -1
v -1 2 -1
v -1 3 1
v -1.258819 2.965926 1
v -1 2 1
v -2 2 1
v -1.5 2.866025 1
v -1.707107 2.707107 1
v -1.965926 2.258819 1
v -1.866025 2.5 1
v -1.5 -3.866025 1
v -1.5 -3.866025 -1
v -1.707107 -3.707107 1
v -1.707107 -3.707107 -1
v -1.866025 -3.5 -1
v -1.965926 -3.258819 -1
v -1.866025 -3.5 1
v -2 -3 1
v -1.965926 -3.258819 1
v -2 -3 -1
v -1 -4 1
v -1 -4 -1
v -1.258819 -3.965926 1
v -1.258819 -3.965926 -1
v -1 -3 -1
v -1 -3 1
v -2.707107 1.707107 -1
v -2.866025 1.5 -1
v -2.5 1.866025 -1
v -2.258819 1.965926 -1
v -2.965926 1.258819 -1
v -3 1 -1
v -2 1 -1
v -2.258819 1.965926 1
v -2 1 1
v -3 1 1
v -2.5 1.866025 1
v -2.707107 1.707107 1
v -2.965926 1.258819 1
v -2.866025 1.5 1
v -2.5 -2.866025 1
v -2.5 -2.866025 -1
v -2.707107 -2.707107 1
v -2.707107 -2.707107 -1
v -2.866025 -2.5 -1
v -2.965926 -2.258819 -1
v -2.866025 -2.5 1
v -3 -2 1
v -2.965926 -2.258819 1
v -3 -2 -1
v -2.258819 -2.965926 1
v -2.258819 -2.965926 -1
v -2 -2 -1
v -2 -2 1
v 2 2 -1.5
v 2 -3 -1.5
v 2 2 1.5
v 2 -3 1.5
v 1 2 -1.5
v 1 2 1.5
v 1 -3 1.5
v 1 -3 -1.5
v 1 1 -1.5
v 1 1 1.5
v -2 2 -1.5
v -2 2 1.5
v -2 1 1.5
v -2 1 -1.5
v 1 1 -2
v 1 -2 -2
v 1 1 2
v 1 -2 2
v -1 1 -2
v -1 1 2
v -1 -2 2
v -1 -2 -2
v -1 1 -1.5
v -1 -3 -1.5
v -1 1 1.5
v -1 -3 1.5
v -2 -3 1.5
v -2 -3 -1.5
v 1 -2 -1.5
v 1 -2 1.5
v -1 -2 -1.5
v -1 -2 1.5
v 0 5 -0.5
v 0 5.732051 -0.5
v 0 5 0.5
v 0 5.732051 0.5
v 0.4142136 5.414214 -0.5
v 0.4142136 5.414214 0.5
v 0.2175229 5.586707 -0.5
v 0.2175229 5.586707 0.5
v 0.7320508 5 -0.5
v 0.5867067 5.217523 -0.5
v 0.5867067 5.217523 0.5
v 0.7320508 5 0.5
v 0 6 0.5
v 0 6 -0.5
v -1 6 0.5
v -1 6 -0.5
v -0.9659258 6.741181 -0.5
v -0.8660254 6.5 -0.5
v -0.9659258 6.741181 0.5
v -0.258819 6.034074 -0.5
v -0.5 6.133975 -0.5
v -0.7071068 6.292893 -0.5
v -1 7 -0.5
v -1 7 0.5
v -0.258819 6.034074 0.5
v -0.5 6.133975 0.5
v -0.7071068 6.292893 0.5
v -0.8660254 6.5 0.5
v -2 5 0.5
v -2.034074 5.258819 0.5
v -2 6 0.5
v -2.133975 5.5 0.5
v -2.292893 5.707107 0.5
v -2.5 5.866025 0.5
v -2.741181 5.965926 0.5
v -3 6 0.5
v -2.133975 5.5 -0.5
v -2.292893 5.707107 -0.5
v -2 5 -0.5
v -2 6 -0.5
v -2.034074 5.258819 -0.5
v -2.5 5.866025 -0.5
v -2.741181 5.965926 -0.5
v -3 6 -0.5
v -1 7 -1
v -1 5 -1
v -1 7 1
v -1 5 1
v -2 7 -1
v -2 7 1
v -2 5 1
v -2 5 -1
v -2 6 -1
v -2 6 1
v -3 7 -1
v -3 7 1
v -3 6 1
v -3 6 -1
v -3 7 -0.5
v -3 7 0.5
v -4 7 -0.5
v -4 7 0.5
v -4 6 0.5
v -4 6 -0.5
v 0 6 -1
v 0 5 -1
v 0 6 1
v 0 5 1
v -1 6 -1
v -1 6 1
v 0 3 -0.5
v 0 3 0.5
v -1 5 -0.5
v -1 5 0.5
v -1 3 0.5
v -1 3 -0.5

vn 0 0 1
vn 0.7071068 0.7071068 0
vn 0.5 0.8660254 0
vn 0.9659259 0.2588191 0
vn 0.9914449 0.1305262 0
vn 0.2588191 0.9659258 0
vn 0.1305262 0.9914449 0
vn 0 0 -1
vn 0.8660254 0.5 0
vn 0 -1 0
vn -1 0 0
vn 0.2588191 -0.9659259 0
vn 0.1305262 -0.9914449 0
vn 0.5 -0.8660254 0
vn 0.7071068 -0.7071068 0
vn 0.8660254 -0.5 0
vn 0.9659259 -0.2588191 0
vn 0 1 0
vn 0.9914449 -0.1305262 0
vn -0.1305262 0.9914449 0
vn -0.2588191 0.9659259 0
vn -0.5 0.8660254 0
vn -0.7071068 0.7071068 0
vn -0.9914449 0.1305262 0
vn -0.9659259 0.2588191 0
vn -0.8660254 0.5 0
vn 1 0 0
vn -0.5 -0.8660254 0
vn -0.7071068 -0.7071068 0
vn -0.8660254 -0.5 0
vn -0.9659259 -0.2588191 0
vn -0.9914449 -0.1305262 0
vn -0.1305262 -0.9914449 0
vn -0.2588191 -0.9659259 0
vn 0.7071068 0.7071068 0
vn 0.6087614 0.7933533 0
vn 0.7933533 0.6087614 0
vn 0.8314696 0.5555702 0
vn 0.5555702 0.8314696 0
vn 0.9659258 0.258819 0
vn 0.1305262 0.9914449 0
vn 0.258819 0.9659258 0
vn 0.9914449 0.1305262 0
vn -0.7071068 -0.7071068 0
vn -0.258819 -0.9659258 0
vn -0.9659258 -0.258819 0

vt 19.68504 -19.68504
vt -19.68504 -19.68504
vt 18.34354 -9.495314
vt -19.68504 19.68504
vt 14.41045 -5.080391E-07
vt 8.153811 8.15381
vt 8.013691E-07 14.41045
vt -9.495313 18.34354
vt 0 0
vt NaN 0
vt NaN 0
vt NaN 0
vt NaN 0
vt NaN 0
vt NaN 0
vt NaN 0
vt NaN 0
vt 19.68504 19.68504
vt 18.34354 9.495314
vt -19.68504 19.68504
vt -9.495314 -18.34354
vt 1.970335E-11 -14.41045
vt 8.153811 -8.153811
vt 14.41045 1.481837E-11
vt NaN 0
vt NaN 0
vt NaN 0
vt NaN 0
vt NaN 0
vt NaN 0
vt NaN 0
vt NaN 0
vt 0 NaN
vt 0 NaN
vt 0 NaN
vt 0 NaN
vt 9.495314 18.34354
vt -1.421085E-14 14.41045
vt 0 NaN
vt 0 NaN
vt -18.34354 -9.495314
vt -14.41045 1.776357E-14
vt -8.153811 8.153811
vt NaN 0
vt NaN 0
vt NaN 0
vt NaN 0
vt NaN 0
vt NaN 0
vt NaN 0
vt -18.34354 9.495314
vt 9.495314 -18.34354
vt -4.074963E-12 -14.41045
vt -8.153811 -8.153811
vt -14.41045 3.101519E-12
vt 0 NaN
vt 0 NaN
vt 0 NaN
vt 0 NaN
vt 0 NaN
vt 0 NaN
vt NaN 0
vt NaN 0
vt NaN 0
vt NaN 0
vt NaN 0
vt NaN 0
vt NaN 0
vt 0 NaN
vt 0 NaN
vt 0 NaN
vt 0 NaN
vt 0 NaN
vt 0 NaN
vt 0 NaN
vt 0 NaN
vt 0 NaN
vt 0 NaN
vt 0 NaN
vt 0 NaN
vt 0 NaN
vt 0 NaN
vt 0 NaN
vt 0 NaN
vt 0 NaN
vt 0 NaN
vt 0 NaN
vt 0 NaN
vt 0 NaN
vt 0 NaN
vt 0 NaN
vt 0 NaN
vt 0 NaN
vt 0 NaN
vt 0 NaN
vt 0 NaN
vt 0 NaN
vt 0 NaN
vt 0 NaN
vt 0 NaN
vt 0 NaN
vt 0 NaN
vt 0 NaN
vt 0 NaN
vt 0 NaN
vt -11.12115 3.413649
vt -3.377419 -3.377419
vt -19.68504 9.135859
vt 0 NaN
vt 0 NaN
vt 0 NaN
vt 0 NaN
vt 0 NaN
vt 9.135859 -19.68504
vt 3.413649 -11.12115
vt NaN 0
vt NaN 0
vt NaN 0
vt NaN 0
vt NaN 0
vt NaN 0
vt NaN 0
vt NaN 0
vt -14.41045 2.273026E-11
vt -8.15381 -8.153811
vt 2.933274E-07 -14.41045
vt 14.41045 -1.267253E-11
vt 8.153811 8.153811
vt -1.120526E-11 14.41045
vt -9.495314 18.34354
vt 0 NaN
vt 0 NaN
vt 0 NaN
vt 0 NaN
vt 0 NaN
vt 0 NaN
vt 0 NaN
vt 0 NaN
vt 0 NaN
vt 0 NaN
vt 0 NaN
vt 0 NaN
vt 0 NaN
vt 0 NaN
vt 0 NaN
vt 0 NaN
vt 0 NaN
vt 0 NaN
vt 0 NaN
vt 0 NaN
vt 0 NaN
vt 0 NaN
vt 0 NaN
vt 0 NaN
vt 0 NaN
vt 0 NaN

usemtl color9

f 3/3/1 2/2/1 1/1/1
f 2/2/1 3/3/1 4/4/1
f 4/4/1 3/3/1 5/5/1
f 4/4/1 5/5/1 6/6/1
f 4/4/1 6/6/1 7/7/1
f 4/4/1 7/7/1 8/8/1
f 10/4/3 6/7/2 9/8/2
f 6/4/2 10/7/3 7/8/3
f 3/4/4 12/7/5 11/8/4
f 12/4/5 3/7/4 1/8/5
f 14/4/7 8/7/6 13/8/6
f 8/4/6 14/7/7 4/8/7
f 15/4/8 11/7/8 12/8/8
f 11/4/8 15/7/8 14/8/8
f 11/4/8 14/7/8 16/8/8
f 16/4/8 14/7/8 9/8/8
f 9/4/8 14/7/8 10/8/8
f 10/4/8 14/7/8 13/8/8
f 6/4/2 16/7/9 9/8/2
f 16/4/9 6/7/2 5/8/9
f 2/4/10 12/7/10 1/8/10
f 12/4/10 2/7/10 15/8/10
f 2/4/11 14/7/11 15/8/11
f 14/4/11 2/7/11 4/8/11
f 5/4/9 11/7/4 16/8/9
f 11/4/4 5/7/9 3/8/4
f 13/4/6 7/7/3 10/8/3
f 7/4/3 13/7/6 8/8/6
f 19/9/13 18/10/12 17/9/12
f 17/9/12 21/11/14 20/9/14
f 20/9/14 23/12/15 22/9/15
f 23/12/15 24/13/16 22/9/15
f 23/12/15 20/9/14 21/11/14
f 21/11/14 17/9/12 18/10/12
f 18/10/12 19/9/13 25/9/13
f 28/9/17 27/14/16 26/9/17
f 19/9/11 29/15/11 25/9/11
f 29/15/11 19/9/11 30/9/11
f 29/9/18 32/16/18 31/9/18
f 32/16/18 29/9/18 30/9/18
f 29/9/8 18/17/8 25/9/8
f 18/17/8 29/9/8 21/9/8
f 21/9/8 29/9/8 23/9/8
f 23/9/8 29/9/8 27/9/8
f 27/9/8 29/9/8 26/9/8
f 26/9/8 29/9/8 31/9/8
f 32/20/19 26/19/17 31/18/19
f 26/20/17 32/19/19 28/18/17
f 27/14/16 28/9/17 24/13/16
f 24/13/16 23/12/15 27/14/16
f 17/21/1 30/20/1 19/2/1
f 30/20/1 17/21/1 20/22/1
f 30/20/1 20/22/1 22/23/1
f 30/20/1 22/23/1 24/24/1
f 30/20/1 24/24/1 28/19/1
f 30/20/1 28/19/1 32/18/1
f 34/3/1 33/2/1 4/1/1
f 33/2/1 34/3/1 35/4/1
f 35/4/1 34/3/1 36/5/1
f 35/4/1 36/5/1 37/6/1
f 35/4/1 37/6/1 38/7/1
f 35/4/1 38/7/1 39/8/1
f 41/4/3 37/7/2 40/8/2
f 37/4/2 41/7/3 38/8/3
f 34/4/4 14/7/5 42/8/4
f 14/4/5 34/7/4 4/8/5
f 44/4/7 39/7/6 43/8/6
f 39/4/6 44/7/7 35/8/7
f 45/4/8 42/7/8 14/8/8
f 42/4/8 45/7/8 44/8/8
f 42/4/8 44/7/8 46/8/8
f 46/4/8 44/7/8 40/8/8
f 40/4/8 44/7/8 41/8/8
f 41/4/8 44/7/8 43/8/8
f 37/4/2 46/7/9 40/8/2
f 46/4/9 37/7/2 36/8/9
f 33/4/10 14/7/10 4/8/10
f 14/4/10 33/7/10 45/8/10
f 33/4/11 44/7/11 45/8/11
f 44/4/11 33/7/11 35/8/11
f 36/4/9 42/7/4 46/8/9
f 42/4/4 36/7/9 34/8/4
f 43/4/6 38/7/3 41/8/3
f 38/4/3 43/7/6 39/8/6
f 49/9/13 48/25/12 47/9/12
f 47/9/12 51/26/14 50/9/14
f 50/9/14 53/27/15 52/9/15
f 53/27/15 54/28/16 52/9/15
f 53/27/15 50/9/14 51/26/14
f 51/26/14 47/9/12 48/25/12
f 48/25/12 49/9/13 55/9/13
f 58/9/17 57/29/16 56/9/17
f 49/9/11 59/30/11 55/9/11
f 59/30/11 49/9/11 60/9/11
f 59/9/18 19/31/18 25/9/18
f 19/31/18 59/9/18 60/9/18
f 59/9/8 48/32/8 55/9/8
f 48/32/8 59/9/8 51/9/8
f 51/9/8 59/9/8 53/9/8
f 53/9/8 59/9/8 57/9/8
f 57/9/8 59/9/8 56/9/8
f 56/9/8 59/9/8 25/9/8
f 19/20/19 56/19/17 25/18/19
f 56/20/17 19/19/19 58/18/17
f 57/29/16 58/9/17 54/28/16
f 54/28/16 53/27/15 57/29/16
f 47/21/1 60/20/1 49/2/1
f 60/20/1 47/21/1 50/22/1
f 60/20/1 50/22/1 52/23/1
f 60/20/1 52/23/1 54/24/1
f 60/20/1 54/24/1 58/19/1
f 60/20/1 58/19/1 19/18/1
f 63/9/8 62/9/8 61/33/8
f 63/9/8 61/33/8 64/34/8
f 63/9/8 64/34/8 65/35/8
f 63/9/8 66/9/8 62/9/8
f 66/9/8 68/9/8 67/36/8
f 68/9/8 66/9/8 63/9/8
f 65/38/21 69/18/20 63/37/20
f 69/38/20 65/18/21 70/37/21
f 72/38/10 68/18/10 71/37/10
f 68/38/10 72/18/10 67/37/10
f 61/38/23 73/18/22 64/37/22
f 73/38/22 61/18/23 74/37/23
f 72/38/24 66/18/25 67/37/24
f 66/38/25 72/18/24 75/37/25
f 75/38/25 62/18/26 66/37/25
f 62/38/26 75/18/25 76/37/26
f 76/38/26 61/18/23 62/37/26
f 61/38/23 76/18/26 74/37/23
f 64/9/22 70/9/21 65/38/21
f 70/9/21 64/9/22 73/18/22
f 69/9/27 68/9/27 63/39/27
f 68/9/27 69/9/27 71/40/27
f 69/18/1 72/2/1 71/1/1
f 72/2/1 69/18/1 75/41/1
f 75/41/1 69/18/1 76/42/1
f 76/42/1 69/18/1 74/43/1
f 74/43/1 69/18/1 73/38/1
f 73/38/1 69/18/1 70/37/1
f 79/9/29 78/44/28 77/9/28
f 78/44/28 79/9/29 80/9/29
f 83/9/30 82/45/31 81/9/30
f 86/9/32 85/46/31 84/9/32
f 89/9/34 88/47/33 87/9/33
f 88/47/33 89/9/34 90/9/34
f 86/9/18 92/48/18 91/9/18
f 92/48/18 86/9/18 84/9/18
f 92/9/27 88/49/27 91/9/27
f 88/49/27 92/9/27 87/9/27
f 90/9/8 91/50/8 88/9/8
f 91/50/8 90/9/8 78/9/8
f 91/50/8 78/9/8 80/9/8
f 91/50/8 80/9/8 81/9/8
f 91/50/8 81/9/8 82/9/8
f 91/50/8 82/9/8 86/9/8
f 77/51/28 90/18/34 89/20/34
f 90/51/34 77/18/28 78/44/28
f 79/51/29 81/18/30 80/20/29
f 81/51/30 79/18/29 83/20/30
f 82/45/31 83/9/30 85/46/31
f 85/46/31 86/9/32 82/45/31
f 92/18/1 89/52/1 87/1/1
f 89/52/1 92/18/1 77/53/1
f 77/53/1 92/18/1 79/54/1
f 79/54/1 92/18/1 83/55/1
f 83/55/1 92/18/1 85/51/1
f 85/51/1 92/18/1 84/20/1
f 67/36/8 94/9/8 93/56/8
f 67/36/8 93/56/8 95/57/8
f 67/36/8 95/57/8 96/58/8
f 67/36/8 97/9/8 94/9/8
f 97/9/8 99/9/8 98/59/8
f 99/9/8 97/9/8 67/36/8
f 96/38/21 72/18/20 67/37/20
f 72/38/20 96/18/21 100/37/21
f 102/38/10 99/18/10 101/37/10
f 99/38/10 102/18/10 98/37/10
f 93/38/23 103/18/22 95/37/22
f 103/38/22 93/18/23 104/37/23
f 102/38/24 97/18/25 98/37/24
f 97/38/25 102/18/24 105/37/25
f 105/38/25 94/18/26 97/37/25
f 94/38/26 105/18/25 106/37/26
f 106/38/26 93/18/23 94/37/26
f 93/38/23 106/18/26 104/37/23
f 95/9/22 100/9/21 96/38/21
f 100/9/21 95/9/22 103/18/22
f 72/9/27 99/9/27 67/60/27
f 99/9/27 72/9/27 101/61/27
f 72/18/1 102/2/1 101/1/1
f 102/2/1 72/18/1 105/41/1
f 105/41/1 72/18/1 106/42/1
f 106/42/1 72/18/1 104/43/1
f 104/43/1 72/18/1 103/38/1
f 103/38/1 72/18/1 100/37/1
f 109/9/29 108/62/28 107/9/28
f 108/62/28 109/9/29 110/9/29
f 113/9/30 112/63/31 111/9/30
f 116/9/32 115/64/31 114/9/32
f 117/9/34 86/65/33 84/9/33
f 86/65/33 117/9/34 118/9/34
f 116/9/18 120/66/18 119/9/18
f 120/66/18 116/9/18 114/9/18
f 120/9/27 86/67/27 119/9/27
f 86/67/27 120/9/27 84/9/27
f 118/9/8 119/68/8 86/9/8
f 119/68/8 118/9/8 108/9/8
f 119/68/8 108/9/8 110/9/8
f 119/68/8 110/9/8 111/9/8
f 119/68/8 111/9/8 112/9/8
f 119/68/8 112/9/8 116/9/8
f 107/51/28 118/18/34 117/20/34
f 118/51/34 107/18/28 108/62/28
f 109/51/29 111/18/30 110/20/29
f 111/51/30 109/18/29 113/20/30
f 112/63/31 113/9/30 115/64/31
f 115/64/31 116/9/32 112/63/31
f 120/18/1 117/52/1 84/1/1
f 117/52/1 120/18/1 107/53/1
f 107/53/1 120/18/1 109/54/1
f 109/54/1 120/18/1 113/55/1
f 113/55/1 120/18/1 115/51/1
f 115/51/1 120/18/1 114/20/1
f 35/2/27 45/18/27 44/20/27
f 45/2/27 35/18/27 33/20/27
f 63/2/18 35/18/18 44/20/18
f 35/2/18 63/18/18 69/20/18
f 71/9/10 45/9/10 33/4/10
f 45/9/10 71/9/10 68/18/10
f 71/9/11 63/9/11 68/69/11
f 63/9/11 71/9/11 69/70/11
f 63/9/8 45/9/8 68/9/8
f 45/9/8 63/9/8 44/8/8
f 35/18/1 71/2/1 33/1/1
f 71/2/1 35/18/1 69/20/1
f 123/2/27 122/18/27 121/20/27
f 122/2/27 123/18/27 124/20/27
f 125/2/18 123/18/18 121/20/18
f 123/2/18 125/18/18 126/20/18
f 127/9/10 122/9/10 124/71/10
f 122/9/10 127/9/10 128/72/10
f 127/9/11 125/9/11 128/73/11
f 125/9/11 127/9/11 126/74/11
f 125/9/8 122/9/8 128/75/8
f 122/9/8 125/9/8 121/76/8
f 123/18/1 127/2/1 124/1/1
f 127/2/1 123/18/1 126/20/1
f 126/2/27 129/18/27 125/20/27
f 129/2/27 126/18/27 130/20/27
f 131/2/18 126/18/18 125/20/18
f 126/2/18 131/18/18 132/20/18
f 133/9/10 129/9/10 130/77/10
f 129/9/10 133/9/10 134/78/10
f 133/9/11 131/9/11 134/79/11
f 131/9/11 133/9/11 132/80/11
f 131/9/8 129/9/8 134/81/8
f 129/9/8 131/9/8 125/9/8
f 126/18/1 133/2/1 130/1/1
f 133/2/1 126/18/1 132/20/1
f 1/2/27 31/18/27 12/20/27
f 31/2/27 1/18/27 32/20/27
f 15/2/18 1/18/18 12/20/18
f 1/2/18 15/18/18 2/20/18
f 30/9/10 31/9/10 32/82/10
f 31/9/10 30/9/10 29/83/10
f 30/9/11 15/9/11 29/15/11
f 15/9/11 30/9/11 2/4/11
f 15/9/8 31/9/8 29/9/8
f 31/9/8 15/9/8 12/8/8
f 1/18/1 30/2/1 32/1/1
f 30/2/1 1/18/1 2/20/1
f 137/2/27 136/18/27 135/20/27
f 136/2/27 137/18/27 138/20/27
f 139/2/18 137/18/18 135/20/18
f 137/2/18 139/18/18 140/20/18
f 141/9/10 136/9/10 138/84/10
f 136/9/10 141/9/10 142/85/10
f 141/9/11 139/9/11 142/86/11
f 139/9/11 141/9/11 140/87/11
f 139/9/8 136/9/8 142/88/8
f 136/9/8 139/9/8 135/89/8
f 137/18/1 141/2/1 138/1/1
f 141/2/1 137/18/1 140/20/1
f 145/2/27 144/18/27 143/20/27
f 144/2/27 145/18/27 146/20/27
f 134/2/18 145/18/18 143/20/18
f 145/2/18 134/18/18 133/20/18
f 147/9/10 144/9/10 146/90/10
f 144/9/10 147/9/10 148/91/10
f 147/9/11 134/79/11 148/92/11
f 134/79/11 147/9/11 133/9/11
f 134/81/8 144/9/8 148/93/8
f 144/9/8 134/81/8 143/94/8
f 145/18/1 147/2/1 146/1/1
f 147/2/1 145/18/1 133/20/1
f 101/61/27 119/18/27 99/20/27
f 119/2/27 101/61/27 120/20/27
f 98/2/18 101/18/18 99/20/18
f 101/2/18 98/18/18 102/20/18
f 114/9/10 119/9/10 120/95/10
f 119/9/10 114/9/10 116/96/10
f 114/9/11 98/9/11 116/97/11
f 98/9/11 114/9/11 102/98/11
f 98/59/8 119/68/8 116/9/8
f 119/68/8 98/59/8 99/9/8
f 101/18/1 114/2/1 120/1/1
f 114/2/1 101/18/1 102/20/1
f 150/2/27 128/18/27 149/20/27
f 128/2/27 150/18/27 127/20/27
f 151/2/18 150/18/18 149/20/18
f 150/2/18 151/18/18 152/20/18
f 146/90/10 128/72/10 127/9/10
f 128/72/10 146/90/10 144/9/10
f 146/9/11 151/9/11 144/99/11
f 151/9/11 146/9/11 152/100/11
f 151/9/8 128/75/8 144/9/8
f 128/75/8 151/9/8 149/101/8
f 150/18/1 146/2/1 127/1/1
f 146/2/1 150/18/1 152/20/1
f 60/2/27 55/18/27 59/20/27
f 55/2/27 60/18/27 49/20/27
f 91/2/18 60/18/18 59/20/18
f 60/2/18 91/18/18 92/48/18
f 87/9/10 55/9/10 49/102/10
f 55/9/10 87/9/10 88/103/10
f 87/9/11 91/9/11 88/104/11
f 91/9/11 87/9/11 92/105/11
f 91/50/8 55/9/8 88/9/8
f 55/9/8 91/50/8 59/9/8
f 60/18/1 87/2/1 49/1/1
f 87/2/1 60/18/1 92/20/1
f 126/2/27 129/18/27 125/20/27
f 129/2/27 126/18/27 130/20/27
f 131/2/18 126/18/18 125/20/18
f 126/2/18 131/18/18 132/20/18
f 133/9/10 129/9/10 130/77/10
f 129/9/10 133/9/10 134/78/10
f 133/9/11 131/9/11 134/79/11
f 131/9/11 133/9/11 132/80/11
f 131/9/8 129/9/8 134/81/8
f 129/9/8 131/9/8 125/9/8
f 126/18/1 133/2/1 130/1/1
f 133/2/1 126/18/1 132/20/1

usemtl color7

f 155/108/11 154/107/11 153/106/11
f 154/108/11 155/107/11 156/106/11
f 159/108/36 158/107/35 157/106/35
f 158/108/35 159/107/36 160/106/36
f 153/108/8 162/107/8 161/106/8
f 162/108/8 153/107/8 154/106/8
f 162/108/8 154/107/8 157/106/8
f 157/108/8 154/107/8 159/106/8
f 163/9/37 161/9/38 162/109/37
f 161/9/38 163/9/37 164/110/38
f 154/9/39 160/9/36 159/108/36
f 160/9/36 154/9/39 156/111/39
f 155/9/10 161/9/10 164/112/10
f 161/9/10 155/9/10 153/113/10
f 158/9/35 162/109/37 157/106/35
f 162/109/37 158/9/35 163/9/37
f 163/115/1 155/2/1 164/114/1
f 155/2/1 163/115/1 156/108/1
f 156/108/1 163/115/1 158/107/1
f 156/108/1 158/107/1 160/106/1
f 167/9/10 166/116/10 165/9/10
f 166/116/10 167/9/10 168/9/10
f 171/9/40 170/117/9 169/9/40
f 168/9/8 172/118/8 166/9/8
f 172/118/8 168/9/8 173/9/8
f 173/9/8 168/9/8 174/9/8
f 174/9/8 168/9/8 170/9/8
f 170/9/8 168/9/8 169/9/8
f 169/9/8 168/9/8 175/9/8
f 167/9/11 175/119/11 168/9/11
f 175/119/11 167/9/11 176/9/11
f 172/9/42 165/120/41 166/9/41
f 173/9/3 177/121/42 172/9/42
f 174/9/35 178/122/3 173/9/3
f 174/9/35 180/123/9 179/9/35
f 178/122/3 174/9/35 179/9/35
f 177/121/42 173/9/3 178/122/3
f 165/120/41 172/9/42 177/121/42
f 176/52/43 169/2/40 175/1/43
f 169/52/40 176/2/43 171/1/40
f 170/117/9 171/9/40 180/123/9
f 180/123/9 174/9/35 170/117/9
f 167/2/1 171/51/1 176/20/1
f 171/51/1 167/2/1 180/124/1
f 180/124/1 167/2/1 179/125/1
f 179/125/1 167/2/1 178/126/1
f 178/126/1 167/2/1 177/52/1
f 177/52/1 167/2/1 165/1/1
f 183/18/1 182/3/1 181/1/1
f 182/3/1 183/18/1 184/127/1
f 184/127/1 183/18/1 185/128/1
f 185/128/1 183/18/1 186/129/1
f 186/129/1 183/18/1 187/130/1
f 187/130/1 183/18/1 188/20/1
f 184/130/30 190/18/44 189/20/30
f 190/130/44 184/18/30 185/20/44
f 193/130/8 192/18/8 191/20/8
f 192/130/8 193/18/8 189/20/8
f 192/130/8 189/18/8 190/20/8
f 192/130/8 190/18/8 194/20/8
f 192/130/8 194/18/8 195/20/8
f 192/130/8 195/18/8 196/20/8
f 183/130/27 191/18/27 192/20/27
f 191/130/27 183/18/27 181/20/27
f 196/130/18 183/18/18 192/20/18
f 183/130/18 196/18/18 188/20/18
f 186/130/28 190/18/44 185/20/44
f 190/130/44 186/18/28 194/20/28
f 187/130/45 194/18/28 186/20/28
f 194/130/28 187/18/45 195/20/45
f 181/130/32 193/18/46 191/20/32
f 193/130/46 181/18/32 182/20/46
f 182/130/46 189/18/30 193/20/46
f 189/130/30 182/18/46 184/20/30
f 188/130/33 195/18/45 187/20/45
f 195/130/45 188/18/33 196/20/33
f 199/2/27 198/18/27 197/20/27
f 198/2/27 199/18/27 200/20/27
f 201/2/18 199/18/18 197/20/18
f 199/2/18 201/18/18 202/20/18
f 203/9/10 198/9/10 200/131/10
f 198/9/10 203/9/10 204/132/10
f 203/9/11 201/9/11 204/133/11
f 201/9/11 203/9/11 202/134/11
f 201/9/8 198/9/8 204/135/8
f 198/9/8 201/9/8 197/136/8
f 199/18/1 203/2/1 200/1/1
f 203/2/1 199/18/1 202/20/1
f 202/2/27 205/18/27 201/20/27
f 205/2/27 202/18/27 206/20/27
f 207/2/18 202/18/18 201/20/18
f 202/2/18 207/18/18 208/20/18
f 209/9/10 205/9/10 206/137/10
f 205/9/10 209/9/10 210/138/10
f 209/9/11 207/9/11 210/139/11
f 207/9/11 209/9/11 208/140/11
f 207/9/8 205/9/8 210/141/8
f 205/9/8 207/9/8 201/9/8
f 202/18/1 209/2/1 206/1/1
f 209/2/1 202/18/1 208/20/1
f 212/2/27 196/18/27 211/20/27
f 196/2/27 212/18/27 188/20/27
f 213/2/18 212/18/18 211/20/18
f 212/2/18 213/18/18 214/20/18
f 215/9/10 196/9/10 188/142/10
f 196/9/10 215/9/10 216/143/10
f 215/9/11 213/9/11 216/144/11
f 213/9/11 215/9/11 214/145/11
f 213/9/8 196/9/8 216/146/8
f 196/9/8 213/9/8 211/147/8
f 212/18/1 215/2/1 188/1/1
f 215/2/1 212/18/1 214/20/1
f 202/2/27 205/18/27 201/20/27
f 205/2/27 202/18/27 206/20/27
f 207/2/18 202/18/18 201/20/18
f 202/2/18 207/18/18 208/20/18
f 209/9/10 205/9/10 206/137/10
f 205/9/10 209/9/10 210/138/10
f 209/9/11 207/9/11 210/139/11
f 207/9/11 209/9/11 208/140/11
f 207/9/8 205/9/8 210/141/8
f 205/9/8 207/9/8 201/9/8
f 202/18/1 209/2/1 206/1/1
f 209/2/1 202/18/1 208/20/1
f 219/2/27 218/18/27 217/20/27
f 218/2/27 219/18/27 220/20/27
f 221/2/18 219/18/18 217/20/18
f 219/2/18 221/18/18 222/20/18
f 200/131/10 218/9/10 220/148/10
f 218/9/10 200/131/10 198/9/10
f 200/9/11 221/9/11 198/149/11
f 221/9/11 200/9/11 222/150/11
f 221/9/8 218/9/8 198/9/8
f 218/9/8 221/9/8 217/151/8
f 219/18/1 200/2/1 220/1/1
f 200/2/1 219/18/1 222/20/1

usemtl color2

f 155/2/27 223/18/27 153/20/27
f 223/2/27 155/18/27 224/20/27
f 225/2/18 155/18/18 153/20/18
f 155/2/18 225/18/18 226/20/18
f 227/9/10 223/9/10 224/152/10
f 223/9/10 227/9/10 228/153/10
f 227/9/11 225/9/11 228/154/11
f 225/9/11 227/9/11 226/155/11
f 225/9/8 223/9/8 228/156/8
f 223/9/8 225/9/8 153/108/8
f 155/18/1 227/2/1 224/1/1
f 227/2/1 155/18/1 226/20/1

