# Blender 4.3.2
# www.blender.org
mtllib coin.mtl
o coin
v 1.500000 2.500000 -0.250000
v 1.500000 3.000000 -0.250000
v 1.500000 2.500000 0.250000
v 1.500000 3.000000 0.250000
v 2.000000 2.500000 -0.250000
v 2.000000 2.500000 0.250000
v 2.000000 -2.500000 0.250000
v 1.500000 -3.000000 0.250000
v 1.500000 -2.500000 0.250000
v 2.000000 -2.500000 -0.250000
v 1.500000 -3.000000 -0.250000
v 1.500000 -2.500000 -0.250000
v 1.000000 3.000000 -0.250000
v 1.000000 3.500000 -0.250000
v 1.000000 3.000000 0.250000
v 1.000000 3.500000 0.250000
v 1.000000 -3.500000 0.250000
v 1.000000 -3.000000 0.250000
v 1.000000 -3.500000 -0.250000
v 1.000000 -3.000000 -0.250000
v -1.500000 3.000000 -0.250000
v -1.000000 3.000000 -0.250000
v -1.000000 3.500000 -0.250000
v -1.000000 3.500000 0.250000
v -1.000000 3.000000 0.250000
v -1.500000 3.000000 0.250000
v -1.000000 -3.000000 -0.250000
v -1.000000 -3.500000 -0.250000
v -1.000000 -3.000000 0.250000
v -1.000000 -3.500000 0.250000
v -1.500000 -3.000000 -0.250000
v -1.500000 -3.000000 0.250000
v -2.000000 2.500000 -0.250000
v -1.500000 2.500000 -0.250000
v -1.500000 2.500000 0.250000
v -2.000000 2.500000 0.250000
v -1.500000 -2.500000 -0.250000
v -1.500000 -2.500000 0.250000
v -2.000000 -2.500000 -0.250000
v -2.000000 -2.500000 0.250000
v 1.000000 2.500000 0.250000
v 1.000000 2.500000 -0.250000
v -1.000000 2.500000 -0.250000
v -1.000000 2.500000 0.250000
v 0.500000 2.000000 -1.000000
v 0.500000 1.500000 -1.000000
v 0.500000 2.000000 1.000000
v 0.500000 1.500000 1.000000
v -0.500000 2.000000 -1.000000
v -0.500000 2.000000 1.000000
v -0.500000 1.500000 1.000000
v -0.500000 1.500000 -1.000000
v 1.000000 1.500000 -1.000000
v 1.000000 -1.500000 -1.000000
v 1.000000 1.500000 1.000000
v 1.000000 -1.500000 1.000000
v 0.500000 -1.500000 1.000000
v 0.500000 -1.500000 -1.000000
v -0.500000 -1.500000 -1.000000
v -0.500000 -1.500000 1.000000
v -1.000000 1.500000 -1.000000
v -1.000000 1.500000 1.000000
v -1.000000 -1.500000 1.000000
v -1.000000 -1.500000 -1.000000
v 0.500000 -2.000000 -1.000000
v 0.500000 -2.000000 1.000000
v -0.500000 -2.000000 1.000000
v -0.500000 -2.000000 -1.000000
v 1.000000 -2.500000 -0.250000
v 1.000000 -2.500000 0.250000
v -1.000000 -2.500000 -0.250000
v -1.000000 -2.500000 0.250000
v 1.000000 3.000000 -0.750000
v 1.000000 1.500000 -0.750000
v 1.000000 3.000000 0.750000
v 1.000000 1.500000 0.750000
v 0.500000 3.000000 -0.750000
v 0.500000 3.000000 0.750000
v 0.500000 1.500000 0.750000
v 0.500000 1.500000 -0.750000
v 0.500000 2.500000 -0.750000
v 0.500000 2.500000 0.750000
v -1.000000 3.000000 -0.750000
v -1.000000 3.000000 0.750000
v -1.000000 2.500000 0.750000
v -1.000000 2.500000 -0.750000
v 1.500000 2.500000 -0.750000
v 1.500000 -2.500000 -0.750000
v 1.500000 2.500000 0.750000
v 1.500000 -2.500000 0.750000
v 1.000000 2.500000 -0.750000
v 1.000000 2.500000 0.750000
v 1.000000 -2.500000 0.750000
v 1.000000 -2.500000 -0.750000
v 0.500000 2.000000 -0.750000
v 0.500000 2.000000 0.750000
v -1.500000 2.500000 -0.750000
v -1.500000 2.500000 0.750000
v -1.500000 2.000000 0.750000
v -1.500000 2.000000 -0.750000
v -0.500000 2.000000 -0.750000
v -0.500000 1.500000 -0.750000
v -0.500000 2.000000 0.750000
v -0.500000 1.500000 0.750000
v -1.500000 1.500000 0.750000
v -1.500000 1.500000 -0.750000
v 0.500000 -1.500000 -0.750000
v 0.500000 -1.500000 0.750000
v -0.500000 -1.500000 0.750000
v -0.500000 -1.500000 -0.750000
v -1.000000 1.500000 -0.750000
v -1.000000 -2.500000 -0.750000
v -1.000000 1.500000 0.750000
v -1.000000 -2.500000 0.750000
v -1.500000 -2.500000 0.750000
v -1.500000 -2.500000 -0.750000
v 1.000000 -1.500000 -0.750000
v 1.000000 -3.000000 -0.750000
v 1.000000 -1.500000 0.750000
v 1.000000 -3.000000 0.750000
v 0.500000 -3.000000 0.750000
v 0.500000 -3.000000 -0.750000
v -0.500000 -3.000000 -0.750000
v -0.500000 -3.000000 0.750000
v -1.000000 -1.500000 -0.750000
v -1.000000 -1.500000 0.750000
v -1.000000 -3.000000 0.750000
v -1.000000 -3.000000 -0.750000
v 0.500000 -2.000000 -0.750000
v 0.500000 -2.000000 0.750000
v -0.500000 -2.000000 -0.750000
v -0.500000 -2.000000 0.750000
vn 1.0000 -0.0000 -0.0000
vn -0.0000 -0.0000 -1.0000
vn 0.7071 0.7071 -0.0000
vn -0.0000 1.0000 -0.0000
vn -0.0000 -0.0000 1.0000
vn 0.7071 -0.7071 -0.0000
vn -0.0000 -1.0000 -0.0000
vn -1.0000 -0.0000 -0.0000
vn -0.7071 0.7071 -0.0000
vn -0.7071 -0.7071 -0.0000
vn 0.5773 0.5774 0.5773
vn 0.5773 -0.5774 -0.5773
vn 0.5774 0.5774 -0.5774
vn 0.5774 -0.5774 0.5774
vn -0.5773 0.5774 -0.5773
vn -0.5774 0.5774 0.5774
vn -0.5773 -0.5774 0.5773
vn -0.5774 -0.5774 -0.5774
vt 0.000000 0.000000
vt -19.685040 19.685040
vt 19.685040 -19.685040
vt -19.685040 -19.685040
vt 19.685040 19.685040
s 1
usemtl color4
f 3/1/1 1/1/1 2/1/1
f 2/1/1 4/1/1 3/1/1
f 2/1/2 5/1/2 1/1/2
f 2/1/3 6/1/3 5/1/3
f 6/1/3 2/1/3 4/1/3
f 3/2/4 6/3/4 5/4/4
f 5/2/4 1/3/4 3/4/4
f 4/2/5 3/4/5 6/3/5
f 9/2/5 8/4/5 7/5/5
f 8/2/6 10/4/6 7/5/6
f 10/2/6 8/4/6 11/5/6
f 12/2/7 10/5/7 7/4/7
f 7/2/7 9/5/7 12/4/7
f 8/2/1 11/5/1 12/4/1
f 12/2/1 9/5/1 8/4/1
f 12/2/2 10/4/2 11/5/2
f 15/1/1 13/1/1 14/1/1
f 14/1/1 16/1/1 15/1/1
f 14/1/2 2/1/2 13/1/2
f 14/1/3 4/1/3 2/1/3
f 4/1/3 14/1/3 16/1/3
f 15/2/4 4/3/4 2/4/4
f 2/2/4 13/3/4 15/4/4
f 16/2/5 15/4/5 4/3/5
f 18/2/5 17/4/5 8/5/5
f 17/2/6 11/4/6 8/5/6
f 11/2/6 17/4/6 19/5/6
f 20/2/7 11/5/7 8/4/7
f 8/2/7 18/5/7 20/4/7
f 17/2/1 19/5/1 20/4/1
f 20/2/1 18/5/1 17/4/1
f 20/2/2 11/4/2 19/5/2
f 23/5/2 22/4/2 21/3/2
f 24/5/8 23/3/8 22/4/8
f 22/5/8 25/3/8 24/4/8
f 26/5/9 23/4/9 21/3/9
f 23/5/9 26/4/9 24/3/9
f 26/1/4 25/1/4 22/1/4
f 22/1/4 21/1/4 26/1/4
f 24/5/5 26/4/5 25/3/5
f 29/1/8 27/1/8 28/1/8
f 28/1/8 30/1/8 29/1/8
f 30/2/10 31/3/10 28/5/10
f 31/2/10 30/3/10 32/5/10
f 31/2/2 27/3/2 28/5/2
f 31/2/7 27/5/7 29/3/7
f 29/2/7 32/5/7 31/3/7
f 32/2/5 30/3/5 29/5/5
f 21/5/2 34/4/2 33/3/2
f 26/5/8 21/3/8 34/4/8
f 34/5/8 35/3/8 26/4/8
f 36/5/9 21/4/9 33/3/9
f 21/5/9 36/4/9 26/3/9
f 36/1/4 35/1/4 34/1/4
f 34/1/4 33/1/4 36/1/4
f 26/5/5 36/4/5 35/3/5
f 38/1/8 37/1/8 31/1/8
f 31/1/8 32/1/8 38/1/8
f 32/2/10 39/3/10 31/5/10
f 39/2/10 32/3/10 40/5/10
f 39/2/2 37/3/2 31/5/2
f 39/2/7 37/5/7 38/3/7
f 38/2/7 40/5/7 39/3/7
f 40/2/5 32/3/5 38/5/5
f 16/4/1 13/5/1 14/2/1
f 13/4/1 16/5/1 15/2/1
f 23/4/4 16/5/4 14/2/4
f 16/4/4 23/5/4 24/2/4
f 25/1/7 13/1/7 15/2/7
f 13/1/7 25/1/7 22/1/7
f 25/1/8 23/1/8 22/1/8
f 23/1/8 25/1/8 24/1/8
f 23/1/2 13/1/2 22/4/2
f 13/1/2 23/1/2 14/1/2
f 16/5/5 25/4/5 15/3/5
f 25/4/5 16/5/5 24/2/5
f 4/4/1 1/5/1 2/2/1
f 1/4/1 4/5/1 3/2/1
f 13/4/4 4/5/4 2/2/4
f 4/4/4 13/5/4 15/2/4
f 41/1/7 1/1/7 3/2/7
f 1/1/7 41/1/7 42/1/7
f 41/1/8 13/1/8 42/1/8
f 13/1/8 41/1/8 15/1/8
f 13/1/2 1/1/2 42/1/2
f 1/1/2 13/1/2 2/1/2
f 4/5/5 41/4/5 3/3/5
f 41/4/5 4/5/5 15/2/5
f 25/4/1 43/5/1 22/2/1
f 43/4/1 25/5/1 44/2/1
f 21/4/4 25/5/4 22/2/4
f 25/4/4 21/5/4 26/2/4
f 35/1/7 43/1/7 44/1/7
f 43/1/7 35/1/7 34/1/7
f 35/1/8 21/1/8 34/1/8
f 21/1/8 35/1/8 26/1/8
f 21/1/2 43/1/2 34/4/2
f 43/1/2 21/1/2 22/4/2
f 25/5/5 35/4/5 44/3/5
f 35/4/5 25/5/5 26/2/5
f 6/4/1 10/5/1 5/2/1
f 10/4/1 6/5/1 7/2/1
f 1/4/4 6/5/4 5/2/4
f 6/4/4 1/5/4 3/2/4
f 9/1/7 10/1/7 7/1/7
f 10/1/7 9/1/7 12/1/7
f 9/1/8 1/1/8 12/4/8
f 1/1/8 9/1/8 3/1/8
f 1/1/2 10/1/2 12/2/2
f 10/1/2 1/1/2 5/1/2
f 6/5/5 9/4/5 7/3/5
f 9/4/5 6/5/5 3/2/5
f 35/4/1 37/5/1 34/2/1
f 37/4/1 35/5/1 38/2/1
f 33/4/4 35/5/4 34/2/4
f 35/4/4 33/5/4 36/2/4
f 40/1/7 37/1/7 38/1/7
f 37/1/7 40/1/7 39/1/7
f 40/1/8 33/1/8 39/1/8
f 33/1/8 40/1/8 36/1/8
f 33/1/2 37/1/2 39/2/2
f 37/1/2 33/1/2 34/4/2
f 35/5/5 40/4/5 38/3/5
f 40/4/5 35/5/5 36/2/5
f 47/4/1 46/5/1 45/2/1
f 46/4/1 47/5/1 48/2/1
f 49/4/4 47/5/4 45/2/4
f 47/4/4 49/5/4 50/2/4
f 51/1/7 46/1/7 48/1/7
f 46/1/7 51/1/7 52/1/7
f 51/1/8 49/1/8 52/1/8
f 49/1/8 51/1/8 50/1/8
f 49/1/2 46/1/2 52/1/2
f 46/1/2 49/1/2 45/1/2
f 47/5/5 51/4/5 48/3/5
f 51/4/5 47/5/5 50/2/5
f 55/4/1 54/5/1 53/2/1
f 54/4/1 55/5/1 56/2/1
f 46/4/4 55/5/4 53/2/4
f 55/4/4 46/5/4 48/2/4
f 57/1/7 54/1/7 56/1/7
f 54/1/7 57/1/7 58/1/7
f 57/1/8 46/1/8 58/1/8
f 46/1/8 57/1/8 48/1/8
f 46/1/2 54/1/2 58/1/2
f 54/1/2 46/1/2 53/1/2
f 55/5/5 57/4/5 56/3/5
f 57/4/5 55/5/5 48/2/5
f 51/4/1 59/5/1 52/2/1
f 59/4/1 51/5/1 60/2/1
f 61/4/4 51/5/4 52/2/4
f 51/4/4 61/5/4 62/2/4
f 63/1/7 59/1/7 60/1/7
f 59/1/7 63/1/7 64/1/7
f 63/1/8 61/1/8 64/1/8
f 61/1/8 63/1/8 62/1/8
f 61/1/2 59/1/2 64/1/2
f 59/1/2 61/1/2 52/1/2
f 51/5/5 63/4/5 60/3/5
f 63/4/5 51/5/5 62/2/5
f 57/4/1 65/5/1 58/2/1
f 65/4/1 57/5/1 66/2/1
f 59/4/4 57/5/4 58/2/4
f 57/4/4 59/5/4 60/2/4
f 67/1/7 65/1/7 66/1/7
f 65/1/7 67/1/7 68/1/7
f 67/1/8 59/1/8 68/1/8
f 59/1/8 67/1/8 60/1/8
f 59/1/2 65/1/2 68/1/2
f 65/1/2 59/1/2 58/1/2
f 57/5/5 67/4/5 66/3/5
f 67/4/5 57/5/5 60/2/5
f 9/4/1 11/5/1 12/2/1
f 11/4/1 9/5/1 8/2/1
f 69/4/4 9/5/4 12/2/4
f 9/4/4 69/5/4 70/2/4
f 18/1/7 11/1/7 8/1/7
f 11/1/7 18/1/7 20/1/7
f 18/1/8 69/1/8 20/4/8
f 69/1/8 18/1/8 70/1/8
f 69/1/2 11/1/2 20/2/2
f 11/1/2 69/1/2 12/2/2
f 9/5/5 18/4/5 8/3/5
f 18/4/5 9/5/5 70/2/5
f 72/4/1 27/5/1 71/2/1
f 27/4/1 72/5/1 29/2/1
f 37/4/4 72/5/4 71/2/4
f 72/4/4 37/5/4 38/2/4
f 32/1/7 27/1/7 29/1/7
f 27/1/7 32/1/7 31/1/7
f 32/1/8 37/1/8 31/1/8
f 37/1/8 32/1/8 38/1/8
f 37/1/2 27/1/2 31/2/2
f 27/1/2 37/1/2 71/1/2
f 72/5/5 32/4/5 29/3/5
f 32/4/5 72/5/5 38/2/5
f 18/4/1 19/5/1 20/2/1
f 19/4/1 18/5/1 17/2/1
f 27/4/4 18/5/4 20/2/4
f 18/4/4 27/5/4 29/2/4
f 30/1/7 19/1/7 17/1/7
f 19/1/7 30/1/7 28/1/7
f 30/1/8 27/1/8 28/1/8
f 27/1/8 30/1/8 29/1/8
f 27/1/2 19/1/2 28/5/2
f 19/1/2 27/1/2 20/2/2
f 18/5/5 30/4/5 17/3/5
f 30/4/5 18/5/5 29/2/5
usemtl color5
f 75/4/1 74/5/1 73/2/1
f 74/4/1 75/5/1 76/2/1
f 77/4/4 75/5/4 73/2/4
f 75/4/4 77/5/4 78/2/4
f 79/1/7 74/1/7 76/1/7
f 74/1/7 79/1/7 80/1/7
f 79/1/8 77/1/8 80/1/8
f 77/1/8 79/1/8 78/1/8
f 77/1/2 74/1/2 80/1/2
f 74/1/2 77/1/2 73/1/2
f 75/5/5 79/4/5 76/3/5
f 79/4/5 75/5/5 78/2/5
f 78/4/11 81/5/12 77/2/13
f 81/4/12 78/5/11 82/2/14
f 83/4/15 78/5/11 77/2/13
f 78/4/11 83/5/15 84/2/16
f 85/1/17 81/1/12 82/1/14
f 81/1/12 85/1/17 86/1/18
f 83/1/15 85/1/17 84/1/16
f 83/1/15 81/1/12 86/1/18
f 89/4/1 88/5/1 87/2/1
f 88/4/1 89/5/1 90/2/1
f 91/4/4 89/5/4 87/2/4
f 89/4/4 91/5/4 92/2/4
f 93/1/7 88/1/7 90/1/7
f 88/1/7 93/1/7 94/1/7
f 93/1/8 91/1/8 94/1/8
f 91/1/8 93/1/8 92/1/8
f 91/1/2 88/1/2 94/1/2
f 88/1/2 91/1/2 87/1/2
f 89/5/5 93/4/5 90/3/5
f 93/4/5 89/5/5 92/2/5
f 82/4/1 95/5/1 81/2/1
f 95/4/1 82/5/1 96/2/1
f 97/4/4 82/5/4 81/2/4
f 82/4/4 97/5/4 98/2/4
f 99/1/7 95/1/7 96/1/7
f 95/1/7 99/1/7 100/1/7
f 99/1/8 97/1/8 100/1/8
f 97/1/8 99/1/8 98/1/8
f 97/1/2 95/1/2 100/1/2
f 95/1/2 97/1/2 81/1/2
f 82/5/5 99/4/5 96/3/5
f 99/4/5 82/5/5 98/2/5
f 103/4/1 102/5/1 101/2/1
f 102/4/1 103/5/1 104/2/1
f 100/4/4 103/5/4 101/2/4
f 103/4/4 100/5/4 99/2/4
f 105/1/7 102/1/7 104/1/7
f 102/1/7 105/1/7 106/1/7
f 105/1/8 100/1/8 106/1/8
f 100/1/8 105/1/8 99/1/8
f 100/1/2 102/1/2 106/1/2
f 102/1/2 100/1/2 101/1/2
f 103/5/5 105/4/5 104/3/5
f 105/4/5 103/5/5 99/2/5
f 79/4/1 107/5/1 80/2/1
f 107/4/1 79/5/1 108/2/1
f 102/4/4 79/5/4 80/2/4
f 79/4/4 102/5/4 104/2/4
f 109/1/7 107/1/7 108/1/7
f 107/1/7 109/1/7 110/1/7
f 109/1/8 102/1/8 110/1/8
f 102/1/8 109/1/8 104/1/8
f 102/1/2 107/1/2 110/1/2
f 107/1/2 102/1/2 80/1/2
f 79/5/5 109/4/5 108/3/5
f 109/4/5 79/5/5 104/2/5
f 113/4/1 112/5/1 111/2/1
f 112/4/1 113/5/1 114/2/1
f 106/4/4 113/5/4 111/2/4
f 113/4/4 106/5/4 105/2/4
f 115/1/7 112/1/7 114/1/7
f 112/1/7 115/1/7 116/1/7
f 115/1/8 106/1/8 116/1/8
f 106/1/8 115/1/8 105/1/8
f 106/1/2 112/1/2 116/1/2
f 112/1/2 106/1/2 111/1/2
f 113/5/5 115/4/5 114/3/5
f 115/4/5 113/5/5 105/2/5
f 119/4/1 118/5/1 117/2/1
f 118/4/1 119/5/1 120/2/1
f 107/4/4 119/5/4 117/2/4
f 119/4/4 107/5/4 108/2/4
f 121/1/7 118/1/7 120/1/7
f 118/1/7 121/1/7 122/1/7
f 121/1/8 107/1/8 122/1/8
f 107/1/8 121/1/8 108/1/8
f 107/1/2 118/1/2 122/1/2
f 118/1/2 107/1/2 117/1/2
f 119/5/5 121/4/5 120/3/5
f 121/4/5 119/5/5 108/2/5
f 109/4/1 123/5/1 110/2/1
f 123/4/1 109/5/1 124/2/1
f 125/4/4 109/5/4 110/2/4
f 109/4/4 125/5/4 126/2/4
f 127/1/7 123/1/7 124/1/7
f 123/1/7 127/1/7 128/1/7
f 127/1/8 125/1/8 128/1/8
f 125/1/8 127/1/8 126/1/8
f 125/1/2 123/1/2 128/1/2
f 123/1/2 125/1/2 110/1/2
f 109/5/5 127/4/5 124/3/5
f 127/4/5 109/5/5 126/2/5
f 130/4/1 122/5/1 129/2/1
f 122/4/1 130/5/1 121/2/1
f 131/4/4 130/5/4 129/2/4
f 130/4/4 131/5/4 132/2/4
f 124/1/7 122/1/7 121/1/7
f 122/1/7 124/1/7 123/1/7
f 124/1/8 131/1/8 123/1/8
f 131/1/8 124/1/8 132/1/8
f 131/1/2 122/1/2 123/1/2
f 122/1/2 131/1/2 129/1/2
f 130/5/5 124/4/5 121/3/5
f 124/4/5 130/5/5 132/2/5
f 85/1/17 83/1/15 86/1/18
f 81/1/12 83/1/15 77/1/13
f 78/5/11 85/4/17 82/3/14
f 85/4/17 78/5/11 84/2/16
