# Blender 4.3.2
# www.blender.org
mtllib frame.mtl
o Cube
v 3.292827 0.284861 -0.032284
v 3.292827 -0.284861 -0.032284
v 3.292827 0.284861 0.537439
v 3.292827 -0.284861 0.537439
v 2.034257 0.284861 -0.032284
v 2.034257 -0.284861 -0.032284
v 2.034257 0.284861 0.537439
v 2.034257 -0.284861 0.537439
v 3.292827 1.019632 -0.032284
v 3.292827 1.019632 0.537439
v 2.034257 1.019632 -0.032284
v 2.034257 1.019632 0.537439
v 3.292827 2.006979 -0.032284
v 3.292827 2.006979 0.537439
v 2.034257 2.006979 -0.032284
v 2.034257 2.006979 0.537439
v 3.292827 3.017288 -0.032284
v 3.292827 3.017288 0.537439
v 2.034257 3.017288 -0.032284
v 2.034257 3.017288 0.537439
v 3.292827 4.004635 -0.032284
v 3.292827 4.004635 0.537439
v 2.034257 4.004635 -0.032284
v 2.034257 4.004635 0.537439
v 0.000000 3.017288 -0.032284
v 0.000000 3.017288 0.537439
v 0.000000 4.004635 -0.032284
v 0.000000 4.004635 0.537439
v -3.292827 0.284861 -0.032284
v -3.292827 -0.284861 -0.032284
v -3.292827 0.284861 0.537439
v -3.292827 -0.284861 0.537439
v -2.034257 0.284861 -0.032284
v -2.034257 -0.284861 -0.032284
v -2.034257 0.284861 0.537439
v -2.034257 -0.284861 0.537439
v -3.292827 1.019632 -0.032284
v -3.292827 1.019632 0.537439
v -2.034257 1.019632 -0.032284
v -2.034257 1.019632 0.537439
v -3.292827 2.006979 -0.032284
v -3.292827 2.006979 0.537439
v -2.034257 2.006979 -0.032284
v -2.034257 2.006979 0.537439
v -3.292827 3.017288 -0.032284
v -3.292827 3.017288 0.537439
v -2.034257 3.017288 -0.032284
v -2.034257 3.017288 0.537439
v -3.292827 4.004635 -0.032284
v -3.292827 4.004635 0.537439
v -2.034257 4.004635 -0.032284
v -2.034257 4.004635 0.537439
vn 1.0000 -0.0000 -0.0000
vn -0.0000 -0.0000 1.0000
vn -1.0000 -0.0000 -0.0000
vn -0.0000 -1.0000 -0.0000
vn -0.0000 -0.0000 -1.0000
vn -0.0000 1.0000 -0.0000
vt 0.625000 0.750000
vt 0.625000 0.500000
vt 0.375000 0.750000
vt 0.625000 1.000000
vt 0.375000 1.000000
vt 0.375000 0.000000
vt 0.625000 0.000000
vt 0.625000 0.250000
vt 0.375000 0.250000
vt 0.125000 0.500000
vt 0.375000 0.500000
vt 0.125000 0.750000
vt 0.875000 0.500000
vt 0.875000 0.750000
s 0
usemtl Material
f 3/1/1 1/2/1 9/2/1 10/1/1
f 4/3/2 3/1/2 7/4/2 8/5/2
f 8/6/3 7/7/3 5/8/3 6/9/3
f 6/10/4 2/11/4 4/3/4 8/12/4
f 2/11/1 1/2/1 3/1/1 4/3/1
f 6/9/5 5/8/5 1/2/5 2/11/5
f 11/8/3 12/7/3 16/7/3 15/8/3
f 1/2/5 5/8/5 11/8/5 9/2/5
f 7/4/2 3/1/2 10/1/2 12/4/2
f 5/8/3 7/7/3 12/7/3 11/8/3
f 13/2/5 15/8/5 19/8/5 17/2/5
f 12/4/2 10/1/2 14/1/2 16/4/2
f 9/2/5 11/8/5 15/8/5 13/2/5
f 10/1/1 9/2/1 13/2/1 14/1/1
f 18/1/1 17/2/1 21/2/1 22/1/1
f 14/1/1 13/2/1 17/2/1 18/1/1
f 15/8/3 16/7/3 20/7/3 19/8/3
f 16/4/2 14/1/2 18/1/2 20/4/2
f 21/2/6 23/13/6 24/14/6 22/1/6
f 24/14/6 23/13/6 27/13/6 28/14/6
f 20/4/2 18/1/2 22/1/2 24/4/2
f 17/2/5 19/8/5 23/8/5 21/2/5
f 23/8/5 19/8/5 25/8/5 27/8/5
f 19/8/4 20/7/4 26/7/4 25/8/4
f 20/4/2 24/4/2 28/4/2 26/4/2
f 31/1/3 38/1/3 37/2/3 29/2/3
f 32/3/2 36/5/2 35/4/2 31/1/2
f 36/6/1 34/9/1 33/8/1 35/7/1
f 34/10/4 36/12/4 32/3/4 30/11/4
f 30/11/3 32/3/3 31/1/3 29/2/3
f 34/9/5 30/11/5 29/2/5 33/8/5
f 39/8/1 43/8/1 44/7/1 40/7/1
f 29/2/5 37/2/5 39/8/5 33/8/5
f 35/4/2 40/4/2 38/1/2 31/1/2
f 33/8/1 39/8/1 40/7/1 35/7/1
f 41/2/5 45/2/5 47/8/5 43/8/5
f 40/4/2 44/4/2 42/1/2 38/1/2
f 37/2/5 41/2/5 43/8/5 39/8/5
f 38/1/3 42/1/3 41/2/3 37/2/3
f 46/1/3 50/1/3 49/2/3 45/2/3
f 42/1/3 46/1/3 45/2/3 41/2/3
f 43/8/1 47/8/1 48/7/1 44/7/1
f 44/4/2 48/4/2 46/1/2 42/1/2
f 49/2/6 50/1/6 52/14/6 51/13/6
f 52/14/6 28/14/6 27/13/6 51/13/6
f 48/4/2 52/4/2 50/1/2 46/1/2
f 45/2/5 49/2/5 51/8/5 47/8/5
f 51/8/5 27/8/5 25/8/5 47/8/5
f 47/8/4 25/8/4 26/7/4 48/7/4
f 48/4/2 26/4/2 28/4/2 52/4/2
