# Created by Kenney (www.kenney.nl)

mtllib key.mtl

v 1 8 -1
v 1 -1 -1
v 1 8 1
v 1 -1 1
v -1 8 -1
v -1 8 1
v -1 -1 1
v -1 -1 -1
v -1 7 -1.5
v -1 6 -1.5
v -1 7 1.5
v -1 6 1.5
v -3 7 -1.5
v -3 7 1.5
v -3 6 1.5
v -3 6 -1.5
v -1 5 -1.5
v -1 4 -1.5
v -1 5 1.5
v -1 4 1.5
v -3 5 -1.5
v -3 5 1.5
v -3 4 1.5
v -3 4 -1.5
v -1 3 -1.5
v -1 2 -1.5
v -1 3 1.5
v -1 2 1.5
v -3 3 -1.5
v -3 3 1.5
v -3 2 1.5
v -3 2 -1.5
v 2 -1 -1
v 2 -2 -1
v 2 -1 1
v 2 -2 1
v 1 -2 1
v 1 -2 -1
v 1 -1 -1.5
v 1 -3 -1.5
v 1 -1 1.5
v 1 -3 1.5
v -1 -1 -1.5
v -1 -1 1.5
v -1 -3 1.5
v -1 -3 -1.5
v -1 -2 -1
v -1 -2 1
v -2 -1 -1
v -2 -1 1
v -2 -2 1
v -2 -2 -1
v 2 -2 -1.5
v 2 -5 -1.5
v 2 -2 1.5
v 2 -5 1.5
v 1 -2 -1.5
v 1 -2 1.5
v 1 -5 1.5
v 1 -5 -1.5
v -1 -2 -1.5
v -1 -5 -1.5
v -1 -2 1.5
v -1 -5 1.5
v -2 -2 -1.5
v -2 -2 1.5
v -2 -5 1.5
v -2 -5 -1.5
v 1 -4 -1.5
v 1 -6 -1.5
v 1 -4 1.5
v 1 -6 1.5
v -1 -4 -1.5
v -1 -4 1.5
v -1 -6 1.5
v -1 -6 -1.5
v 2 -5 -1
v 2 -6 -1
v 2 -5 1
v 2 -6 1
v 1 -5 -1
v 1 -5 1
v 1 -6 1
v 1 -6 -1
v -1 -5 -1
v -1 -6 -1
v -1 -5 1
v -1 -6 1
v -2 -5 -1
v -2 -5 1
v -2 -6 1
v -2 -6 -1

vn 1 0 0
vn 0 1 0
vn 0 -1 0
vn -1 0 0
vn 0 0 -1
vn 0 0 1

vt -19.68504 19.68504
vt 19.68504 19.68504
vt -19.68504 -19.68504
vt 0 NaN
vt 0 0
vt 0 NaN
vt 0 NaN
vt 0 NaN
vt 0 NaN
vt 0 NaN
vt 19.68504 -19.68504
vt 0 NaN
vt 0 NaN
vt 0 NaN
vt 0 NaN
vt 0 NaN
vt 0 NaN
vt 0 NaN
vt 0 NaN
vt 0 NaN
vt 0 NaN
vt 0 NaN
vt 0 NaN
vt 0 NaN
vt 0 NaN
vt 0 NaN
vt 0 NaN
vt 0 NaN
vt 0 NaN
vt 0 NaN
vt 0 NaN
vt 0 NaN
vt 0 NaN
vt 0 NaN
vt 0 NaN
vt 0 NaN
vt 0 NaN
vt 0 NaN
vt 0 NaN
vt 0 NaN
vt 0 NaN
vt 0 NaN
vt 0 NaN
vt 0 NaN
vt 0 NaN
vt 0 NaN
vt 0 NaN
vt 0 NaN
vt 0 NaN
vt 0 NaN
vt 0 NaN
vt 0 NaN
vt 0 NaN
vt 0 NaN
vt 0 NaN
vt 0 NaN
vt 0 NaN
vt 0 NaN
vt 0 NaN
vt 0 NaN
vt 0 NaN
vt 0 NaN
vt 0 NaN
vt 0 NaN
vt 0 NaN
vt 0 NaN
vt 0 NaN
vt 0 NaN
vt 0 NaN
vt 0 NaN
vt 0 NaN
vt 0 NaN
vt 0 NaN
vt 0 NaN
vt 0 NaN
vt 0 NaN

usemtl color5

f 3/3/1 2/2/1 1/1/1
f 2/3/1 3/2/1 4/1/1
f 5/3/2 3/2/2 1/1/2
f 3/3/2 5/2/2 6/1/2
f 7/5/3 2/5/3 4/4/3
f 2/5/3 7/5/3 8/6/3
f 7/5/4 5/5/4 8/7/4
f 5/5/4 7/5/4 6/8/4
f 5/5/5 2/5/5 8/9/5
f 2/5/5 5/5/5 1/10/5
f 3/2/6 7/3/6 4/11/6
f 7/3/6 3/2/6 6/1/6
f 11/3/1 10/2/1 9/1/1
f 10/3/1 11/2/1 12/1/1
f 13/3/2 11/2/2 9/1/2
f 11/3/2 13/2/2 14/1/2
f 15/5/3 10/5/3 12/12/3
f 10/5/3 15/5/3 16/13/3
f 15/5/4 13/5/4 16/14/4
f 13/5/4 15/5/4 14/15/4
f 13/5/5 10/5/5 16/16/5
f 10/5/5 13/5/5 9/17/5
f 11/2/6 15/3/6 12/11/6
f 15/3/6 11/2/6 14/1/6
f 19/3/1 18/2/1 17/1/1
f 18/3/1 19/2/1 20/1/1
f 21/3/2 19/2/2 17/1/2
f 19/3/2 21/2/2 22/1/2
f 23/5/3 18/5/3 20/18/3
f 18/5/3 23/5/3 24/19/3
f 23/5/4 21/5/4 24/20/4
f 21/5/4 23/5/4 22/21/4
f 21/5/5 18/5/5 24/22/5
f 18/5/5 21/5/5 17/23/5
f 19/2/6 23/3/6 20/11/6
f 23/3/6 19/2/6 22/1/6
f 27/3/1 26/2/1 25/1/1
f 26/3/1 27/2/1 28/1/1
f 29/3/2 27/2/2 25/1/2
f 27/3/2 29/2/2 30/1/2
f 31/5/3 26/5/3 28/24/3
f 26/5/3 31/5/3 32/25/3
f 31/5/4 29/5/4 32/26/4
f 29/5/4 31/5/4 30/27/4
f 29/5/5 26/5/5 32/28/5
f 26/5/5 29/5/5 25/29/5
f 27/2/6 31/3/6 28/11/6
f 31/3/6 27/2/6 30/1/6
f 35/3/1 34/2/1 33/1/1
f 34/3/1 35/2/1 36/1/1
f 2/3/2 35/2/2 33/1/2
f 35/3/2 2/2/2 4/1/2
f 37/5/3 34/5/3 36/30/3
f 34/5/3 37/5/3 38/31/3
f 37/5/4 2/5/4 38/32/4
f 2/5/4 37/5/4 4/33/4
f 2/5/5 34/5/5 38/34/5
f 34/5/5 2/5/5 33/35/5
f 35/2/6 37/3/6 36/11/6
f 37/3/6 35/2/6 4/1/6
f 41/3/1 40/2/1 39/1/1
f 40/3/1 41/2/1 42/1/1
f 43/3/2 41/2/2 39/1/2
f 41/3/2 43/2/2 44/1/2
f 45/5/3 40/5/3 42/36/3
f 40/5/3 45/5/3 46/37/3
f 45/5/4 43/5/4 46/38/4
f 43/5/4 45/5/4 44/39/4
f 43/5/5 40/5/5 46/40/5
f 40/5/5 43/5/5 39/41/5
f 41/2/6 45/3/6 42/11/6
f 45/3/6 41/2/6 44/1/6
f 7/3/1 47/2/1 8/1/1
f 47/3/1 7/2/1 48/1/1
f 49/3/2 7/2/2 8/1/2
f 7/3/2 49/2/2 50/1/2
f 51/5/3 47/5/3 48/42/3
f 47/5/3 51/5/3 52/43/3
f 51/5/4 49/5/4 52/44/4
f 49/5/4 51/5/4 50/45/4
f 49/5/5 47/5/5 52/46/5
f 47/5/5 49/5/5 8/9/5
f 7/2/6 51/3/6 48/11/6
f 51/3/6 7/2/6 50/1/6
f 55/3/1 54/2/1 53/1/1
f 54/3/1 55/2/1 56/1/1
f 57/3/2 55/2/2 53/1/2
f 55/3/2 57/2/2 58/1/2
f 59/5/3 54/5/3 56/47/3
f 54/5/3 59/5/3 60/48/3
f 59/5/4 57/5/4 60/49/4
f 57/5/4 59/5/4 58/50/4
f 57/5/5 54/5/5 60/51/5
f 54/5/5 57/5/5 53/52/5
f 55/2/6 59/3/6 56/11/6
f 59/3/6 55/2/6 58/1/6
f 63/3/1 62/2/1 61/1/1
f 62/3/1 63/2/1 64/1/1
f 65/3/2 63/2/2 61/1/2
f 63/3/2 65/2/2 66/1/2
f 67/5/3 62/5/3 64/53/3
f 62/5/3 67/5/3 68/54/3
f 67/5/4 65/5/4 68/55/4
f 65/5/4 67/5/4 66/56/4
f 65/5/5 62/5/5 68/57/5
f 62/5/5 65/5/5 61/58/5
f 63/2/6 67/3/6 64/11/6
f 67/3/6 63/2/6 66/1/6
f 71/3/1 70/2/1 69/1/1
f 70/3/1 71/2/1 72/1/1
f 73/3/2 71/2/2 69/1/2
f 71/3/2 73/2/2 74/1/2
f 75/5/3 70/5/3 72/59/3
f 70/5/3 75/5/3 76/60/3
f 75/5/4 73/5/4 76/61/4
f 73/5/4 75/5/4 74/62/4
f 73/5/5 70/5/5 76/63/5
f 70/5/5 73/5/5 69/64/5
f 71/2/6 75/3/6 72/11/6
f 75/3/6 71/2/6 74/1/6
f 79/3/1 78/2/1 77/1/1
f 78/3/1 79/2/1 80/1/1
f 81/3/2 79/2/2 77/1/2
f 79/3/2 81/2/2 82/1/2
f 83/5/3 78/5/3 80/65/3
f 78/5/3 83/5/3 84/66/3
f 83/5/4 81/5/4 84/67/4
f 81/5/4 83/5/4 82/68/4
f 81/5/5 78/5/5 84/69/5
f 78/5/5 81/5/5 77/70/5
f 79/2/6 83/3/6 80/11/6
f 83/3/6 79/2/6 82/1/6
f 87/3/1 86/2/1 85/1/1
f 86/3/1 87/2/1 88/1/1
f 89/3/2 87/2/2 85/1/2
f 87/3/2 89/2/2 90/1/2
f 91/5/3 86/5/3 88/71/3
f 86/5/3 91/5/3 92/72/3
f 91/5/4 89/5/4 92/73/4
f 89/5/4 91/5/4 90/74/4
f 89/5/5 86/5/5 92/75/5
f 86/5/5 89/5/5 85/76/5
f 87/2/6 91/3/6 88/11/6
f 91/3/6 87/2/6 90/1/6

