# Blender 4.3.2
# www.blender.org
mtllib level.mtl
o Plane
v -10.867151 0.000000 14.780585
v 10.867151 0.000000 14.780585
v -10.867151 0.000000 -14.780585
v 10.867151 0.000000 -14.780585
vn -0.0000 1.0000 -0.0000
vt 0.000000 0.000000
vt 1.000000 0.000000
vt 1.000000 1.000000
vt 0.000000 1.000000
s 0
usemtl Material.001
f 1/1/1 2/2/1 4/3/1 3/4/1
o Cube.002
v 6.279343 1.945155 8.187428
v 6.279343 0.433367 8.187428
v 6.279343 1.945155 10.187428
v 6.279343 0.433367 10.187428
v 4.279343 1.945155 8.187428
v 4.279343 0.433367 8.187428
v 4.279343 1.945155 10.187428
v 4.279343 0.433367 10.187428
v 5.976253 1.945155 8.490519
v 5.976253 1.945155 9.884338
v 4.582433 1.945155 8.490519
v 4.582433 1.945155 9.884338
v 5.976253 2.384702 8.490519
v 5.976253 2.384702 9.884338
v 4.582433 2.384702 8.490519
v 4.582433 2.384702 9.884338
v 5.815144 2.643373 8.275895
v 6.190876 2.384702 10.098962
v 4.743542 2.643373 8.275895
v 4.367810 2.384702 10.098962
v 5.815144 3.381109 8.275895
v 6.190876 3.639780 10.098962
v 4.743542 3.381109 8.275895
v 4.367810 3.639780 10.098962
vn -0.0000 1.0000 -0.0000
vn -0.0000 -0.0000 1.0000
vn -1.0000 -0.0000 -0.0000
vn -0.0000 -1.0000 -0.0000
vn 1.0000 -0.0000 -0.0000
vn -0.0000 -0.0000 -1.0000
vn -0.9710 -0.2009 -0.1296
vn -0.0000 -0.6385 -0.7696
vn 0.9710 -0.2009 -0.1296
vn -0.0000 0.9901 -0.1405
vn 0.9794 -0.0000 -0.2019
vn -0.9794 -0.0000 -0.2019
vt 0.625000 0.250000
vt 0.625000 0.000000
vt 0.375000 0.750000
vt 0.625000 0.750000
vt 0.625000 1.000000
vt 0.375000 1.000000
vt 0.375000 0.000000
vt 0.375000 0.250000
vt 0.125000 0.500000
vt 0.375000 0.500000
vt 0.125000 0.750000
vt 0.625000 0.500000
vt 0.875000 0.500000
vt 0.875000 0.750000
s 0
usemtl Material
f 9/5/2 11/6/2 16/6/2 15/5/2
f 8/7/3 7/8/3 11/9/3 12/10/3
f 12/11/4 11/6/4 9/5/4 10/12/4
f 10/13/5 6/14/5 8/7/5 12/15/5
f 6/14/6 5/16/6 7/8/6 8/7/6
f 10/12/7 9/5/7 5/16/7 6/14/7
f 15/5/4 16/6/4 20/6/4 19/5/4
f 7/8/2 5/16/2 13/16/2 14/8/2
f 5/16/2 9/5/2 15/5/2 13/16/2
f 11/9/2 7/8/2 14/8/2 16/9/2
f 19/5/8 20/6/8 24/6/8 23/5/8
f 16/9/3 14/8/3 18/8/3 20/9/3
f 13/16/7 15/5/7 19/5/7 17/16/7
f 14/8/6 13/16/6 17/16/6 18/8/6
f 21/16/7 23/5/7 27/5/7 25/16/7
f 20/9/5 18/8/5 22/8/5 24/9/5
f 17/16/9 19/5/9 23/5/9 21/16/9
f 18/8/10 17/16/10 21/16/10 22/8/10
f 25/16/11 27/17/11 28/18/11 26/8/11
f 22/8/12 21/16/12 25/16/12 26/8/12
f 23/5/13 24/6/13 28/6/13 27/5/13
f 24/9/3 22/8/3 26/8/3 28/9/3
o Cube.004
v 10.255990 5.436645 -15.672459
v 10.255990 0.262794 -15.672459
v 10.255990 5.436645 -13.672459
v 10.255990 0.262794 -13.672459
v -10.050303 5.436645 -15.672459
v -10.050303 0.262794 -15.672459
v -10.050303 5.436645 -13.672459
v -10.050303 0.262794 -13.672459
v 11.832936 5.436645 -15.672459
v 11.832936 0.262794 -15.672459
v 11.832936 5.436645 -13.672459
v 11.832936 0.262794 -13.672459
v 10.255990 5.436645 13.752701
v 10.255990 0.262794 13.752701
v 11.832936 5.436645 13.752701
v 11.832936 0.262794 13.752701
v 10.255990 5.436645 15.398211
v 10.255990 0.262794 15.398211
v 11.832936 5.436645 15.398211
v 11.832936 0.262794 15.398211
v -9.806813 5.436645 13.752701
v -9.806813 0.262794 13.752701
v -9.806813 5.436645 15.398211
v -9.806813 0.262794 15.398211
v -11.492433 5.436645 13.752701
v -11.492433 0.262794 13.752701
v -11.492433 5.436645 15.398211
v -11.492433 0.262794 15.398211
v -11.492433 5.436645 -13.658913
v -11.492433 0.262794 -13.658913
v -11.492433 5.436645 -15.679494
v -11.492433 0.262794 -15.679494
v -7.191570 0.262794 -15.672459
v -7.191570 5.436645 -13.672459
v -7.191570 0.262794 -13.672459
v -7.191570 5.436645 -15.672459
v -5.415705 0.262794 -13.672459
v -5.415705 5.436645 -15.672459
v -5.415705 0.262794 -15.672459
v -5.415705 5.436645 -13.672459
v -6.978286 4.896551 -13.672459
v -6.978286 0.285051 -13.672459
v -5.628990 0.285051 -13.672459
v -5.628990 4.896551 -13.672459
v -6.978286 4.896551 -14.899537
v -6.978286 0.285051 -14.899537
v -5.628990 0.285051 -14.899537
v -5.628990 4.896551 -14.899537
vn -0.0000 1.0000 -0.0000
vn -0.0000 -0.0000 1.0000
vn -1.0000 -0.0000 -0.0000
vn -0.0000 -1.0000 -0.0000
vn -0.0000 -0.0000 -1.0000
vn 1.0000 -0.0000 -0.0000
vn 1.0000 -0.0000 -0.0089
vn 0.0049 -0.0000 -1.0000
vt 0.839805 0.500000
vt 0.875000 0.500000
vt 0.875000 0.750000
vt 0.839805 0.750000
vt 0.375000 0.964805
vt 0.625000 0.964805
vt 0.625000 1.000000
vt 0.375000 1.000000
vt 0.375000 0.000000
vt 0.625000 0.000000
vt 0.625000 0.250000
vt 0.375000 0.250000
vt 0.182059 0.500000
vt 0.375000 0.500000
vt 0.375000 0.750000
vt 0.182059 0.750000
vt 0.625000 0.750000
vt 0.375000 0.307059
vt 0.625000 0.307059
vt 0.625000 0.500000
vt 0.625000 0.285195
vt 0.375000 0.285195
vt 0.125000 0.500000
vt 0.160195 0.500000
vt 0.160195 0.750000
vt 0.125000 0.750000
vt 0.817941 0.500000
vt 0.817941 0.750000
vt 0.625000 0.942941
vt 0.375000 0.942941
s 0
usemtl Material
f 64/19/14 33/20/14 35/21/14 62/22/14
f 63/23/15 62/24/15 35/25/15 36/26/15
f 36/27/16 35/28/16 33/29/16 34/30/16
f 67/31/17 30/32/17 32/33/17 65/34/17
f 39/35/14 31/35/14 41/35/14 43/35/14
f 67/36/18 66/37/18 29/38/18 30/32/18
f 38/32/19 37/38/19 39/35/19 40/33/19
f 30/32/18 29/38/18 37/38/18 38/32/18
f 32/33/17 30/32/17 38/32/17 40/33/17
f 29/38/14 31/35/14 39/35/14 37/38/14
f 43/35/14 41/35/14 45/35/14 47/35/14
f 31/35/16 32/33/16 42/33/16 41/35/16
f 40/33/19 39/35/19 43/35/19 44/33/19
f 32/33/17 40/33/17 44/33/17 42/33/17
f 45/35/15 46/33/15 48/33/15 47/35/15
f 44/33/19 43/35/19 47/35/19 48/33/19
f 42/33/17 44/33/17 48/33/17 46/33/17
f 45/35/14 41/35/14 49/35/14 51/35/14
f 49/35/20 50/33/20 36/33/20 35/35/20
f 46/33/15 45/35/15 51/35/15 52/33/15
f 42/33/17 46/33/17 52/33/17 50/33/17
f 41/35/18 42/33/18 50/33/18 49/35/18
f 53/35/16 54/33/16 56/33/16 55/35/16
f 50/33/17 52/33/17 56/33/17 54/33/17
f 52/33/15 51/35/15 55/35/15 56/33/15
f 51/35/14 49/35/14 53/35/14 55/35/14
f 36/33/17 58/33/17 60/33/17 34/33/17
f 50/33/17 54/33/17 58/33/17 36/33/17
f 54/33/16 53/35/16 57/35/16 58/33/16
f 53/35/14 49/35/14 35/35/14 57/35/14
f 33/35/21 34/33/21 60/33/21 59/35/21
f 57/35/14 35/35/14 33/35/14 59/35/14
f 58/33/16 57/35/16 59/35/16 60/33/16
f 34/30/18 33/29/18 64/39/18 61/40/18
f 34/41/17 61/42/17 63/43/17 36/44/17
f 62/24/15 63/23/15 70/23/15 69/24/15
f 66/45/14 64/19/14 62/22/14 68/46/14
f 29/38/14 66/45/14 68/46/14 31/35/14
f 32/33/15 31/35/15 68/47/15 65/48/15
f 61/40/18 64/39/18 66/37/18 67/36/18
f 61/42/17 67/31/17 65/34/17 63/43/17
f 65/48/15 68/47/15 72/47/15 71/48/15
f 68/46/15 62/22/15 69/22/15 72/46/15
f 63/43/15 65/34/15 71/34/15 70/43/15
usemtl Material.002
f 71/48/16 72/47/16 76/47/16 75/48/16
f 75/48/15 76/47/15 73/24/15 74/23/15
f 69/24/19 70/23/19 74/23/19 73/24/19
f 70/43/14 71/34/14 75/34/14 74/43/14
f 72/46/17 69/22/17 73/22/17 76/46/17
o Cube.001
v -3.671797 1.945155 8.235042
v -3.671797 0.433367 8.235042
v -3.671797 1.945155 10.235042
v -3.671797 0.433367 10.235042
v -5.671797 1.945155 8.235042
v -5.671797 0.433367 8.235042
v -5.671797 1.945155 10.235042
v -5.671797 0.433367 10.235042
v -3.974887 1.945155 8.538132
v -3.974887 1.945155 9.931952
v -5.368707 1.945155 8.538132
v -5.368707 1.945155 9.931952
v -3.974887 2.384702 8.538132
v -3.974887 2.384702 9.931952
v -5.368707 2.384702 8.538132
v -5.368707 2.384702 9.931952
v -4.135996 2.643373 8.323508
v -3.760264 2.384702 10.146575
v -5.207598 2.643373 8.323508
v -5.583331 2.384702 10.146575
v -4.135996 3.381109 8.323508
v -3.760264 3.639780 10.146575
v -5.207598 3.381109 8.323508
v -5.583331 3.639780 10.146575
vn -0.0000 1.0000 -0.0000
vn -0.0000 -0.0000 1.0000
vn -1.0000 -0.0000 -0.0000
vn -0.0000 -1.0000 -0.0000
vn 1.0000 -0.0000 -0.0000
vn -0.0000 -0.0000 -1.0000
vn -0.9710 -0.2009 -0.1296
vn -0.0000 -0.6385 -0.7696
vn 0.9710 -0.2009 -0.1296
vn -0.0000 0.9901 -0.1405
vn 0.9794 -0.0000 -0.2019
vn -0.9794 -0.0000 -0.2019
vt 0.625000 0.250000
vt 0.625000 0.000000
vt 0.375000 0.750000
vt 0.625000 0.750000
vt 0.625000 1.000000
vt 0.375000 1.000000
vt 0.375000 0.000000
vt 0.375000 0.250000
vt 0.125000 0.500000
vt 0.375000 0.500000
vt 0.125000 0.750000
vt 0.625000 0.500000
vt 0.875000 0.500000
vt 0.875000 0.750000
s 0
usemtl Material
f 81/49/22 83/50/22 88/50/22 87/49/22
f 80/51/23 79/52/23 83/53/23 84/54/23
f 84/55/24 83/50/24 81/49/24 82/56/24
f 82/57/25 78/58/25 80/51/25 84/59/25
f 78/58/26 77/60/26 79/52/26 80/51/26
f 82/56/27 81/49/27 77/60/27 78/58/27
f 87/49/24 88/50/24 92/50/24 91/49/24
f 79/52/22 77/60/22 85/60/22 86/52/22
f 77/60/22 81/49/22 87/49/22 85/60/22
f 83/53/22 79/52/22 86/52/22 88/53/22
f 91/49/28 92/50/28 96/50/28 95/49/28
f 88/53/23 86/52/23 90/52/23 92/53/23
f 85/60/27 87/49/27 91/49/27 89/60/27
f 86/52/26 85/60/26 89/60/26 90/52/26
f 93/60/27 95/49/27 99/49/27 97/60/27
f 92/53/25 90/52/25 94/52/25 96/53/25
f 89/60/29 91/49/29 95/49/29 93/60/29
f 90/52/30 89/60/30 93/60/30 94/52/30
f 97/60/31 99/61/31 100/62/31 98/52/31
f 94/52/32 93/60/32 97/60/32 98/52/32
f 95/49/33 96/50/33 100/50/33 99/49/33
f 96/53/23 94/52/23 98/52/23 100/53/23
o Cube.005
v 1.279966 1.945155 5.901999
v 1.279966 0.433367 5.901999
v 1.279966 1.945155 7.901999
v 1.279966 0.433367 7.901999
v -0.720034 1.945155 5.901999
v -0.720034 0.433367 5.901999
v -0.720034 1.945155 7.901999
v -0.720034 0.433367 7.901999
v 0.976876 1.945155 6.205089
v 0.976876 1.945155 7.598908
v -0.416943 1.945155 6.205089
v -0.416943 1.945155 7.598908
v 0.976876 2.384702 6.205089
v 0.976876 2.384702 7.598908
v -0.416943 2.384702 6.205089
v -0.416943 2.384702 7.598908
v 0.815767 2.643373 5.990465
v 1.191500 2.384702 7.813532
v -0.255835 2.643373 5.990465
v -0.631567 2.384702 7.813532
v 0.815767 3.381109 5.990465
v 1.191500 3.639780 7.813532
v -0.255835 3.381109 5.990465
v -0.631567 3.639780 7.813532
vn -0.0000 1.0000 -0.0000
vn -0.0000 -0.0000 1.0000
vn -1.0000 -0.0000 -0.0000
vn -0.0000 -1.0000 -0.0000
vn 1.0000 -0.0000 -0.0000
vn -0.0000 -0.0000 -1.0000
vn -0.9710 -0.2009 -0.1296
vn -0.0000 -0.6385 -0.7696
vn 0.9710 -0.2009 -0.1296
vn -0.0000 0.9901 -0.1405
vn 0.9794 -0.0000 -0.2019
vn -0.9794 -0.0000 -0.2019
vt 0.625000 0.250000
vt 0.625000 0.000000
vt 0.375000 0.750000
vt 0.625000 0.750000
vt 0.625000 1.000000
vt 0.375000 1.000000
vt 0.375000 0.000000
vt 0.375000 0.250000
vt 0.125000 0.500000
vt 0.375000 0.500000
vt 0.125000 0.750000
vt 0.625000 0.500000
vt 0.875000 0.500000
vt 0.875000 0.750000
s 0
usemtl Material
f 105/63/34 107/64/34 112/64/34 111/63/34
f 104/65/35 103/66/35 107/67/35 108/68/35
f 108/69/36 107/64/36 105/63/36 106/70/36
f 106/71/37 102/72/37 104/65/37 108/73/37
f 102/72/38 101/74/38 103/66/38 104/65/38
f 106/70/39 105/63/39 101/74/39 102/72/39
f 111/63/36 112/64/36 116/64/36 115/63/36
f 103/66/34 101/74/34 109/74/34 110/66/34
f 101/74/34 105/63/34 111/63/34 109/74/34
f 107/67/34 103/66/34 110/66/34 112/67/34
f 115/63/40 116/64/40 120/64/40 119/63/40
f 112/67/35 110/66/35 114/66/35 116/67/35
f 109/74/39 111/63/39 115/63/39 113/74/39
f 110/66/38 109/74/38 113/74/38 114/66/38
f 117/74/39 119/63/39 123/63/39 121/74/39
f 116/67/37 114/66/37 118/66/37 120/67/37
f 113/74/41 115/63/41 119/63/41 117/74/41
f 114/66/42 113/74/42 117/74/42 118/66/42
f 121/74/43 123/75/43 124/76/43 122/66/43
f 118/66/44 117/74/44 121/74/44 122/66/44
f 119/63/45 120/64/45 124/64/45 123/63/45
f 120/67/35 118/66/35 122/66/35 124/67/35
o Cube.003
v 5.374445 1.945155 -6.903066
v 5.374445 0.433367 -6.903066
v 5.374444 1.945155 -8.903067
v 5.374444 0.433367 -8.903067
v 7.374445 1.945155 -6.903067
v 7.374445 0.433367 -6.903067
v 7.374444 1.945155 -8.903067
v 7.374444 0.433367 -8.903067
v 5.677536 1.945155 -7.206157
v 5.677535 1.945155 -8.599977
v 7.071355 1.945155 -7.206157
v 7.071354 1.945155 -8.599977
v 5.677536 2.384702 -7.206157
v 5.677535 2.384702 -8.599977
v 7.071355 2.384702 -7.206157
v 7.071354 2.384702 -8.599977
v 5.838645 2.643373 -6.991533
v 5.462911 2.384702 -8.814600
v 6.910246 2.643373 -6.991533
v 7.285978 2.384702 -8.814600
v 5.838645 3.381109 -6.991533
v 5.462911 3.639780 -8.814600
v 6.910246 3.381109 -6.991533
v 7.285978 3.639780 -8.814600
vn -0.0000 1.0000 -0.0000
vn -0.0000 -0.0000 -1.0000
vn 1.0000 -0.0000 -0.0000
vn -0.0000 -1.0000 -0.0000
vn -1.0000 -0.0000 -0.0000
vn -0.0000 -0.0000 1.0000
vn 0.9710 -0.2009 0.1296
vn -0.0000 -0.6385 0.7696
vn -0.9710 -0.2009 0.1296
vn -0.0000 0.9901 0.1405
vn -0.9794 -0.0000 0.2019
vn 0.9794 -0.0000 0.2019
vt 0.625000 0.250000
vt 0.625000 0.000000
vt 0.375000 0.750000
vt 0.625000 0.750000
vt 0.625000 1.000000
vt 0.375000 1.000000
vt 0.375000 0.000000
vt 0.375000 0.250000
vt 0.125000 0.500000
vt 0.375000 0.500000
vt 0.125000 0.750000
vt 0.625000 0.500000
vt 0.875000 0.500000
vt 0.875000 0.750000
s 0
usemtl Material
f 129/77/46 131/78/46 136/78/46 135/77/46
f 128/79/47 127/80/47 131/81/47 132/82/47
f 132/83/48 131/78/48 129/77/48 130/84/48
f 130/85/49 126/86/49 128/79/49 132/87/49
f 126/86/50 125/88/50 127/80/50 128/79/50
f 130/84/51 129/77/51 125/88/51 126/86/51
f 135/77/48 136/78/48 140/78/48 139/77/48
f 127/80/46 125/88/46 133/88/46 134/80/46
f 125/88/46 129/77/46 135/77/46 133/88/46
f 131/81/46 127/80/46 134/80/46 136/81/46
f 139/77/52 140/78/52 144/78/52 143/77/52
f 136/81/47 134/80/47 138/80/47 140/81/47
f 133/88/51 135/77/51 139/77/51 137/88/51
f 134/80/50 133/88/50 137/88/50 138/80/50
f 141/88/51 143/77/51 147/77/51 145/88/51
f 140/81/49 138/80/49 142/80/49 144/81/49
f 137/88/53 139/77/53 143/77/53 141/88/53
f 138/80/54 137/88/54 141/88/54 142/80/54
f 145/88/55 147/89/55 148/90/55 146/80/55
f 142/80/56 141/88/56 145/88/56 146/80/56
f 143/77/57 144/78/57 148/78/57 147/77/57
f 144/81/47 142/80/47 146/80/47 148/81/47
